<?xml version="1.0" encoding="UTF-8"?>
<svg viewBox="0 0 128 128" xmlns="http://www.w3.org/2000/svg">
  <!-- Generated by FONTe AI -->
  <!-- Style: sans-serif, Character: 8 -->
  <path d="M 46.5 1.5 Q 32.5 1.5 28.8 1.7 Q 19.8 3.3 13.3 9.5 Q 7.8 18.0 7.8 24.8 Q 7.8 32.5 8.8 40.1 Q 12.3 40.1 14.1 45.3 Q 21.6 48.1 26.0 52.0 Q 31.5 52.0 33.8 52.0 Q 41.6 52.7 46.8 52.7 Q 48.8 51.7 46.7 51.7 Q 46.8 49.4 45.3 45.3 V 44.5 Q 46.0 44.5 41.6 42.5 Q 42.1 42.5 38.7 42.5 Q 35.8 41.9 31.5 40.3 Q 26.8 43.1 21.2 46.0 Q 21.2 45.8 22.1 46.7 Q 21.5 49.3 21.6 53.1 Q 21.4 55.6 22.3 57.2 Q 25.6 62.2 30.2 69.9 Q 39.0 69.9 45.7 69.9 Q 49.9 69.9 53.6 69.9 Q 58.9 69.9 55.4 69.9 Q 58.9 69.9 59.8 69.9 Q 58.9 70.8 55.7 69.9 Q 55.9 69.9 49.4 69.9 Q 49.9 69.9 45.7 69.9 Q 45.7 69.9 45.3 69.9 Q 45.3 69.9 46.0 69.9 Q 48.1 69.6 49.2 69.6 Q 52.0 69.6 52.0 69.6 Q 52.0 66.9 52.9 63.2 Q 52.4 62.1 50.9 58.6 Q 49.0 60.2 49.0 57.6 Q 42.8 57.6 36.9 57.6 Q 30.7 57.6 25.5 56.6 Q 23.8 54.0 22.9 47.5 Q 23.6 40.3 24.7 40.3 Q 28.0 40.1 31.0 40.2 Q 39.6 43.5 43.5 47.4 Q 52.0 52.5 51.2 56.6 Q 51.2 62.3 51.2 62.3 Q 51.2 62.3 47.5 62.3 Q 46.5 62.3 43.9 62.3 Q 42.4 62.3 39.3 61.8 Q 40.3 62.3 36.6 62.3 Q 29.8 62.3 26.9 60.5 Q 25.6 58.0 24.7 58.0 Q 25.1 55.8 29.7 54.8 Q 30.0 55.3 33.0 53.2 Q 34.8 53.9 37.2 55.8 Q" fill="#000"/>
</svg>