<?xml version="1.0" encoding="UTF-8"?>
<svg viewBox="0 0 128 128" xmlns="http://www.w3.org/2000/svg">
  <!-- Generated by FONTe AI -->
  <!-- Style: sans-serif, Character: B -->
  <path d="M 127.9 0.0 Q 127.9 Q 127.9 Q 127.9 Q 11.5 Q 48.6 Q 127.9 L 127.9 Q 7.8 127.9 V 127.9 H Q 127.9 Q 127.9 Q 47.2 127.9 Q 74.9 127.9 33.7 Q 127.9 Q 0.0 Z M Q 30.5 Q 60.9 Q 127.9 H 127.9 Q 127.9 Q 127.9 Q 127.9 11.5 V 127.9 Q 21.8 Q 47.9 Q 31.2 Q 19.1 Q 33.7 Q 127.9 Q 127.9 Q 45.1 Q -1.5 Q 68.1 Q 57.7 Q 55.3 Q 66.3 Q 127.9 Q 127.9 Q 51.2 Q Q 127.9 Q 51.1 Q Q 54.5 9.6 -1.5 Q 9.1 Q 22.3 Q Q 47.2 Q 127.9 Q 127.9 Q 25.6 Q Q 52.0 Q 127.9 Q 43.6 Q 77.1 Q 31.5 Q -0.3 45.7 Q 127.9 Q 127.9 Q 127.9 Q 16.0 Q 127.9 6.8 Q 127.9 Q Q 46.2 127.9 Q 45.1 Q 11.0 127.9 Q 127.9 Q 127.9 Q 127.9 Q 21.8 127.9 Q 43.6 127.9 Q 127.9 Q 127.9 127.9 Q 127.9 Q Q 10.2 Q 16.1 Q 127.9 18.4 Q 127.9 Q 127.9 Q 33.5 127.9 Q 127.9 127.9 Q 127.9 Q 127.9 Q 127.9 16.8 Q 127.9 Q 127.9 127.9 Q 127.9 Q 127.9 Q 127.9 L 127.9 127.9 Q 127.9 Q 127.9 16.0 Q 32.8 Q Q 50.4 Q 127.9 Q 127.9 127.9 Q 0.0 Q 127.9 -0.3 Q Q 38.3 Q 44.7 127.9 Q 127.9 Q 47.2 Q 29.4 Q 38.9 Q 56.6 Q 8.4 Q 17.4 Q Q Q 14.1 Q 60.2 Q 21.0 127.9 Q Q 127.9 Q 17.2 127.9 -0.3 Q 47.2 Q 127.9 Q 33.7 Q 127.9 Q 51.2 -1.3 Q Q 60.2 Q Z" fill="#000"/>
</svg>