<?xml version="1.0" encoding="UTF-8"?>
<svg viewBox="0 0 128 128" xmlns="http://www.w3.org/2000/svg">
  <!-- Generated by FONTe AI -->
  <!-- Style: sans-serif, Character: O -->
  <path d="M 1.5 1.5 Q 1.5 2.4 2.4 2.4 Q 1.5 2.4 2.4 2.4 Q 5.5 6.1 6.1 14.0 Q 6.1 21.6 6.1 29.4 Q 6.1 36.2 8.2 40.6 Q 9.9 46.8 14.3 52.4 Q 21.6 57.5 30.1 59.5 Q 33.5 60.9 41.5 60.9 Q 46.6 55.2 52.6 51.6 Q 50.7 50.6 49.4 50.4 Q 49.4 46.6 49.4 49.5 Q 49.4 49.9 47.9 50.4 Q 46.7 49.5 46.5 44.5 49.7 Q 46.0 48.9 46.0 46.0 Q 46.0 43.8 46.3 43.4 Q 41.7 43.1 43.1 43.1 Q 43.1 42.6 41.2 Q 38.1 40.1 34.2 39.2 Q 28.3 39.9 23.2 41.7 Q 20.9 44.7 20.5 43.9 Q 20.5 44.7 20.5 46.3 Q 20.5 45.3 20.5 44.7 Q 20.5 42.5 21.9 39.2 Q 21.9 38.3 22.7 38.4 Q 26.5 39.9 28.8 37.2 Q 36.7 36.0 40.3 41.0 Q 43.3 43.3 45.2 46.1 Q 47.6 47.6 50.7 52.7 Q 53.1 54.7 54.7 54.7 Q 54.7 54.7 54.7 54.7 Q 54.7 54.7 54.7 54.7 Q 54.7 54.7 54.7 54.7 Q 54.7 54.7 54.7 54.7 Q 58.0 54.0 53.2 58.5 Q 53.8 63.9 52.9 64.0 Q 51.5 64.0 50.9 64.0 Q 50.9 64.0 45.8 64.0 Q 45.8 64.0 40.8 64.0 Q 38.8 64.0 33.5 64.0 Q 27.8 64.0 26.8 64.0 Q 24.7 64.0 24.7 64.0 Q 23.0 60.9 23.0 55.3 Q 24.3 51.8 25.9 46.7 Q 26.8 41.2 27.4 41.2 Q 32.1 41.3 35.6 40.8 Q 35.1 39.3 32.8 39.3 Q 33.9 39.8 32.8 39.8 Q 33.3 39.7 35.7 40.3 Q 37.2 41.0 35.1 42.0 Q" fill="#000"/>
</svg>