<?xml version="1.0" encoding="UTF-8"?>
<svg viewBox="0 0 128 128" xmlns="http://www.w3.org/2000/svg">
  <!-- Generated by FONTe AI -->
  <!-- Style: sans-serif, Character: 1 -->
  <path d="M 2.4 0.0 Q 2.4 1.5 1.5 2.0 Q 1.5 4.5 1.5 4.1 Q 2.8 4.9 3.2 2.8 L 3.2 1.3 H 6.5 L 10.9 2.7 Q 12.9 1.5 12.9 1.5 Q 11.9 0.9 9.2 0.4 Q 6.3 0.4 2.4 0.8 Q 0.8 0.8 0.8 0.8 0.8 Q 0.8 0.8 0.8 0.8 0.8 0.8 Q 0.8 0.8 0.8 0.8 Q 0.8 0.8 0.1 0.8 Q 0.8 0.8 0.8 0.8 0.8 Q 2.7 0.8 2.8 1.7 L 2.2 1.0 Q 1.5 1.5 1.5 Z M 0.0 48.0 H 0.0 Z M 0.0 2.6 H 49.7 V 0.0 H 0.0 Z M 0.0 64.6 H 49.7 V 64.0 H 0.0 Z M 0.0 113.3 H 46.7 V 112.0 H 0.0 Z" fill="#000"/>
</svg>