<?xml version="1.0" encoding="UTF-8"?>
<svg viewBox="0 0 128 128" xmlns="http://www.w3.org/2000/svg">
  <!-- Generated by FONTe AI -->
  <!-- Style: sans-serif, Character: N -->
  <path d="M 127.9 89.5 Q 127.9 89.5 127.9 78.8 Q 127.9 77.2 127.9 74.5 Q 127.9 69.6 127.9 62.0 Q 127.9 55.0 127.9 49.0 Q 127.9 45.6 127.9 41.9 Q 127.9 37.2 127.9 30.5 Q 127.9 24.3 127.9 21.0 Q 127.9 10.8 127.9 4.0 Q 127.9 0.0 127.9 0.0 H 127.9 L 127.9 127.9 Q 127.9 127.9 127.9 127.9 Q 127.9 127.9 127.9 127.9 Q 127.9 127.9 127.9 127.9 Q 127.9 127.9 127.9 127.9 Q 127.9 127.9 127.9 127.9 H 127.9 Q 127.9 127.9 127.9 127.9 Q 127.9 127.9 127.9 127.9 Q 127.9 127.9 127.9 127.9 Q 127.9 127.9 127.9 127.9 Q 127.9 127.9 127.9 127.9 L 127.9 Q 127.9 127.9 127.9 127.9 Q 127.9 127.9 127.9 127.9 Q 127.9 127.9 127.9 127.9 Q 127.9 127.9 127.9 127.9 Q 127.9 127.9 127.9 127.9 Q 127.9 127.9 127.9 127.9 Q 127.9 127.9 127.9 127.9 Q 127.9 127.9 127.9 127.9 Q 127.9 127.9 127.9 127.9 Q 127.9 127.9 127.9 127.9 Q 127.9 127.9 127.9 127.9 Q 127.9 127.9 127.9 127.9 Q 127.9 127.9 127.9 127.9 Q 127.9 127.9 127.9 127.9 Q 127.9 127.9 127.9 127.9 Q 127.9 127.9 127.9 127.9 Q 127.9 127.9 127.9 127.9 Q 127.9 127.9 127.9 127.9 Q 127.9 127.9 127.9 127.9 Q 127.9 127.9 127.9 127.9 Q 127.9 127.9 127.9 127.9 Q 127.9 127.9 127.9 127.9 Q 127.9 127.9 127.9 127.9 Q 127.9 127.9 127.9 127.9 Q 127.9 127.9 127.9 127.9 Q 127.9 127.9 127.9 127.9 Q 127.9 127.9 127.9 127.9 Q 127.9 127.9 127.9 127.9 Q 127.9 127.9 127.9 127.9 Q" fill="#000"/>
</svg>