<?xml version="1.0" encoding="UTF-8"?>
<svg viewBox="0 0 128 128" xmlns="http://www.w3.org/2000/svg">
  <!-- Generated by FONTe AI -->
  <!-- Style: sans-serif, Character: C -->
  <path d="M 42.9 -1.3 Q 28.0 -0.9 21.4 1.4 Q 16.9 2.7 11.0 10.5 Q 7.4 15.7 7.2 24.6 Q 3.2 31.5 6.3 40.1 Q 10.4 51.7 12.8 60.9 Q 19.1 72.3 26.1 78.8 Q 31.9 87.0 40.7 90.9 Q 49.8 91.1 53.9 90.2 Q 62.7 88.6 65.9 85.8 L 66.8 78.5 Q 57.1 78.3 53.0 77.8 Q 48.4 77.1 45.8 71.8 Q 42.1 70.9 36.0 68.4 Q 32.5 61.6 34.3 50.6 Q 35.2 49.2 39.4 48.5 Q 44.7 51.6 45.4 53.8 Q 48.4 57.0 52.5 58.1 Q 59.8 60.5 62.1 61.2 Q 65.7 64.3 65.4 67.5 Q 65.9 69.6 62.5 66.7 Q 62.3 65.8 57.9 61.6 Q 55.7 58.2 56.2 53.9 Q 49.4 48.9 47.7 46.8 Q 42.6 45.7 41.7 47.5 Q 41.1 51.6 41.0 54.1 Q 39.9 56.3 37.4 59.4 Q 33.8 63.2 31.0 61.3 Q 30.5 66.4 29.1 64.9 Q 26.6 64.5 26.0 65.0 Q 23.3 65.2 24.2 61.6 Q 23.7 58.0 23.9 49.9 Q 21.8 44.8 22.9 35.8 Q 25.1 26.9 30.3 22.4 Q 32.6 20.6 34.8 21.0 Q 35.3 18.2 37.5 17.0 Q 37.1 15.6 38.0 13.1 Q 38.3 10.0 39.2 8.8 Q 41.2 5.0 42.9 3.3 Q 48.1 1.2 50.6 -1.3 Z" fill="#000"/>
</svg>