<?xml version="1.0" encoding="UTF-8"?>
<svg viewBox="0 0 128 128" xmlns="http://www.w3.org/2000/svg">
  <!-- Generated by FONTe AI -->
  <!-- Style: sans-serif, Character: c -->
  <path d="M 36.2 -1.7 Q 30.0 -1.2 24.1 4.1 Q 18.4 6.1 13.7 15.0 Q 10.2 20.0 7.8 26.8 Q 4.2 33.0 8.1 41.5 Q 12.0 46.8 17.9 50.7 Q 23.4 58.2 29.4 60.2 Q 33.3 62.0 40.4 60.8 Q 45.2 57.5 51.8 55.0 Q 55.2 54.4 50.6 56.6 Q 49.7 57.0 46.5 57.6 Q 43.6 58.6 42.5 62.0 Q 39.6 64.3 38.1 65.0 Q 34.3 63.1 31.6 61.1 Q 30.3 60.0 31.7 60.5 Q 32.6 57.7 34.8 55.7 Q 34.4 51.8 37.1 50.8 Q 39.3 52.0 40.4 54.7 Q 41.1 55.6 43.0 53.6 Q 43.3 51.7 41.5 52.1 Q 41.9 53.1 42.0 52.5 Q 39.6 52.6 38.8 51.1 Q 37.9 51.2 36.5 54.0 Q 35.5 51.8 31.2 50.6 Q 27.1 47.4 26.2 47.5 Q 25.1 43.4 27.5 39.8 Q 26.8 38.3 29.1 35.1 Q 33.0 31.4 36.2 34.4 Q 40.3 34.8 39.3 35.3 Q 42.6 33.7 46.2 34.2 Q 46.6 35.6 48.8 31.6 Q 49.7 27.0 51.1 22.7 Q 51.3 15.5 48.0 9.9 Q 43.1 5.2 35.8 2.7 Q 27.5 -1.7 21.6 -1.2 Z" fill="#000"/>
</svg>