<?xml version="1.0" encoding="UTF-8"?>
<svg viewBox="0 0 128 128" xmlns="http://www.w3.org/2000/svg">
  <!-- Generated by FONTe AI -->
  <!-- Style: sans-serif, Character: u -->
  <path d="M 127.9 1.5 Q 127.9 1.5 127.9 1.8 Q 127.0 4.0 112.8 9.7 Q 106.1 15.9 110.2 22.0 Q 99.6 23.8 101.5 27.1 Q 99.6 27.4 97.2 27.4 Q 106.0 25.0 106.0 24.7 Q 106.0 25.0 112.3 25.0 Q 121.6 23.0 121.6 22.1 Q 127.9 19.1 127.9 14.8 Q 127.9 9.6 127.9 9.6 Q 127.9 9.3 127.9 4.7 Q 127.9 1.5 124.9 1.5 Q 127.9 1.5 127.9 1.5 Q 127.9 1.5 127.9 3.1 Q 127.9 4.9 127.9 11.0 Q 127.9 19.7 127.9 30.7 Q 127.9 38.7 127.9 42.9 Q 127.9 43.8 127.9 42.6 Q 127.9 40.7 127.9 38.7 Q 127.9 37.5 127.9 36.2 Q 127.9 34.0 127.9 31.9 Q 127.9 25.3 127.9 20.9 Q 127.9 14.8 127.9 8.1 Q 127.9 5.1 127.9 4.0 Q 127.9 1.5 127.9 1.5 Z" fill="#000"/>
</svg>