<?xml version="1.0" encoding="UTF-8"?>
<svg viewBox="0 0 128 128" xmlns="http://www.w3.org/2000/svg">
  <!-- Generated by FONTe AI -->
  <!-- Style: sans-serif, Character: k -->
  <path d="M 11.5 0.0 Q 6.8 0.0 6.8 0.4 Q 5.1 0.5 5.1 3.5 Q 3.2 3.8 3.5 Q 3.5 3.5 3.5 3.5 Q 3.5 5.2 6.0 3.5 L 15.2 61.7 Q 15.2 70.0 16.8 71.2 Q 17.5 71.0 15.5 72.2 Q 14.1 74.9 14.7 78.1 Q 14.7 82.7 13.4 83.1 Q 11.3 84.0 8.2 86.0 Q 5.6 86.0 5.6 86.0 Q 5.6 86.0 5.6 86.0 H 8.2 Q 9.0 86.0 9.0 86.0 Q 11.3 86.0 14.5 86.0 Q 17.7 86.0 22.1 86.0 Q 26.8 86.0 29.2 86.0 Q 31.7 86.0 27.9 86.0 Q 28.4 86.0 29.7 86.0 Q 28.4 86.0 29.2 86.0 Q 28.0 86.0 25.3 86.0 L 25.3 76.9 Q 25.7 78.5 25.7 78.5 Q 24.6 78.5 26.0 78.5 Q 24.6 78.5 24.6 78.5 Q 24.6 78.5 22.9 78.5 Q 22.1 78.5 20.2 78.5 Q 20.2 78.5 21.0 78.5 Q 18.0 78.5 18.4 78.5 Q 17.3 78.5 17.4 78.5 Q 17.8 78.5 17.8 78.5 Q 21.2 78.5 20.2 78.5 Q 21.0 78.5 18.9 78.5 Q 18.9 78.5 21.0 78.5 Q 21.0 78.5 21.0 78.5 Q 21.0 78.5 22.9 78.5 Q 24.6 78.5 24.1 78.5 Q 24.1 78.5 24.1 78.5 Q 25.3 78.5 26.5 78.5 Q 28.3 78.5 26.4 78.5 Q 25.3 78.5 25.3 78.5 Q 26.4 78.5 26.4 78.5 Q 26.2 78.5 26.2 78.5 Q 26.4 79.2 24.2 79.2 Q 23.3 78.5 22.0 78.5 Q 22.0 78.5 19.2 78.5 Q 19.2 78.2 19.2 78.5 Q 19.2 78.5 17.2 79.4 Q 17.2 81.7 17.2 80.5 Q 19.2 80.5 19.2 79.0 Q 19.2 80.3" fill="#000"/>
</svg>