<?xml version="1.0" encoding="UTF-8"?>
<svg viewBox="0 0 128 128" xmlns="http://www.w3.org/2000/svg">
  <!-- Generated by FONTe AI -->
  <!-- Style: sans-serif, Character: A -->
  <path d="M 127.9 0.0 H 109.6 L 102.3 0.8 Q 97.4 -1.3 99.3 -0.6 Q 87.6 -0.3 85.1 -0.1 Q 82.2 -0.5 75.4 -0.4 Q 68.6 1.8 62.3 2.4 Q 59.3 2.7 56.7 4.2 Q 53.4 7.7 47.5 7.9 Q 43.6 11.9 38.8 16.6 L 38.4 -1.3 Q 31.4 -0.6 28.0 -0.0 Q 23.8 -0.8 18.3 -0.5 L 12.7 2.6 Q 10.5 3.8 13.1 5.6 Q 11.8 8.3 11.6 Q 9.7 11.0 11.5 11.1 Q 9.5 12.8 10.1 14.6 Q 13.3 12.3 14.0 13.6 Q 16.0 16.9 14.2 17.0 Q 13.8 17.4 15.9 17.3 Q 18.3 17.9 18.7 20.0 Q 20.7 21.2 20.6 23.7 Q 22.5 26.5 23.4 30.8 Q 23.6 36.0 23.3 42.1 Q 24.7 43.6 25.9 46.5 Q 24.6 47.5 27.9 49.3 Q 30.2 49.0 31.4 50.2 L 35.2 44.2 Q 43.3 42.1 47.7 42.4 Q 46.0 41.3 48.4 40.4 Q 49.5 39.8 52.0 41.1 Q 57.2 44.0 64.9 43.0 Q 66.2 41.9 68.2 40.2 Q 65.4 37.8 63.0 34.0 Q 63.7 29.1 62.3 26.1 Q 60.2 22.8 56.1 22.0 Q 49.4 17.7 46.0 17.9 Q 40.7 18.2 35.6 14.7 Q 29.4 10.6 22.5 5.4 Q 19.7 0.0 14.1 -1.2 Q 10.8 -0.8 3.5 -0.5 Q 2.7 -0.6 1.7 -0.3 Q -1.5 1.3 0.0 3.2 Q -0.1 6.0 -2.2 -3.7 Q -1.0 -0.9 -0.8 Q 4.4 2.3 4.7 -0.3 Q 5.1 3.6 7.7 7.9 Q 8.8 10.4 12.8 13.3 Q 18.8 20.4 18.6 21.6 Q 20.6 24.2 25.0 26.0 24.1 Q 28.0 25.6 29.6 26.2 Q 27.6 30.2 28.3 30.6 Q 30.5 29.7 31.4 30.3 Q 31.2 32.3 31.1 32.6 Q 28.9 31.9 26.4 28.7 Q 24.6 28.0 21.5 24.3 Q 18.2 22.9 14.3 Q 11.9 18.0 6.7 10.4 Q 2.6 9.3 0.8 6.4 Q 1.2 5.1 1.4 3.5 Q 0.9 2.8 -0.3 -0.4 Q -0.5 -0.1 -0.0 -0.6 Q -2.9 -0.8 -1.7 Q -2.0 3.1 -1.9 -0.5 Q 0.9 -1.2 -1.0 Q -2.3 -2.6 0.0 -0.3 Q -1.4 -0.4 -0.5 -1.9 Q -0.9 -0.1 -1.0 -0.6 Q -1.5 -2.0 -1.3 2.8 -1.4 Q -0.3 4.6 -1.9 Q -1.7 -1.8 -1.0 -5.1 -0.9 -1.5 Q -2.3 -0.0 -1.4 Q -0.1 -0.6 -1.2 Q -0.4 0.8 -0.9 4.5 -1.3 Q 2.2 3.3 -1.5 -1.8 Q -1.9 -0.5 -1.2 0.1 Q -0.3 -0.6 -1.0 -0.4 -0.8 Z M -1.3 3.7 -0.5 Q -1.8 2.3 6.7 -0.0 Z M -0.6 H 95.6 V -64.0 H 92.8 H 94.6 V -0.5 Q -1.3 127.9 H 0.0 Z" fill="#000"/>
</svg>