<?xml version="1.0" encoding="UTF-8"?>
<svg viewBox="0 0 128 128" xmlns="http://www.w3.org/2000/svg">
  <!-- Generated by FONTe AI -->
  <!-- Style: sans-serif, Character: t -->
  <path d="M 1.8 0.3 Q 0.6 0.3 2.0 Q 0.1 1.8 0.1 2.9 Q 0.3 0.8 0.8 Q 0.3 0.3 0.3 Q 0.3 0.3 0.3 0.5 Q 0.5 0.8 0.5 0.1 1.2 Q 1.2 0.3 0.3 Q 0.3 2.0 0.1 0.3 Q 0.3 0.3 0.3 0.3 Q 0.3 0.3 0.3 Q 0.3 0.3 0.6 Q 0.3 0.9 0.9 5.1 Q 1.9 0.8 0.6 0.1 0.1 Q 2.2 1.2 0.3 Q 1.5 1.9 1.2 Q 1.8 1.5 1.5 0.4 Q 1.5 2.0 2.2 Z" fill="#000"/>
</svg>