<?xml version="1.0" encoding="UTF-8"?>
<svg viewBox="0 0 128 128" xmlns="http://www.w3.org/2000/svg">
  <!-- Generated by FONTe AI -->
  <!-- Style: sans-serif, Character: R -->
  <path d="M 127.9 2.0 Q 127.9 2.0 127.9 2.0 Q 127.9 2.0 127.9 2.0 Q 127.9 2.0 127.9 4.1 Q 127.9 7.7 127.9 12.2 Q 127.9 17.5 127.9 18.4 Q 127.9 17.7 127.9 19.1 Q 127.9 16.0 127.9 10.8 Q 127.9 5.0 127.9 0.9 Q 127.9 0.5 127.9 0.5 Q 127.9 2.0 127.9 2.0 Q 127.9 2.0 127.9 2.0 Z M 127.9 127.9 Q 127.9 127.9 127.9 127.9 Q 127.9 127.9 127.9 127.9 Q 127.9 127.9 127.9 127.9 Q 127.9 127.9 127.9 127.9 Q 127.9 127.9 127.9 127.9 Q 127.9 127.9 127.9 127.9 Q 127.9 127.9 127.9 127.9 Q 127.9 127.9 127.9 127.9 Q 127.9 127.9 127.9 127.9 Q 127.9 127.9 127.9 127.9 Q 127.9 127.9 127.9 127.9 Q 127.9 127.9 127.9 127.9 Q 127.9 127.9 127.9 127.9 Q 127.9 127.9 127.9 127.9 Q 127.9 127.9 127.9 127.9 Z" fill="#000"/>
</svg>