<?xml version="1.0" encoding="UTF-8"?>
<svg viewBox="0 0 128 128" xmlns="http://www.w3.org/2000/svg">
  <!-- Generated by FONTe AI -->
  <!-- Style: sans-serif, Character: g -->
  <path d="M 26.9 22.5 Q 24.8 21.8 19.6 17.2 Q 14.7 18.2 14.7 14.7 Q 14.7 14.7 14.7 7.3 Q 10.1 8.2 9.2 7.4 Q 7.2 7.3 7.8 7.7 Q 7.7 7.7 8.1 7.3 Q 7.3 7.3 10.6 6.5 Q 11.1 7.4 12.3 6.7 Q 12.9 10.2 12.4 11.6 Q 18.3 14.1 22.5 13.6 Q 27.5 14.7 29.6 14.8 Q 32.5 14.3 34.3 9.7 Q 35.1 9.7 36.6 9.7 Q 37.8 9.6 37.2 6.7 Q 34.6 8.1 37.1 8.1 Q 37.1 8.1 36.9 8.1 Q 37.0 8.1 34.8 8.1 Q 34.7 8.1 32.5 8.8 Q 26.5 11.8 25.5 11.3 Q 17.5 12.0 15.7 10.5 Q 15.1 14.0 14.0 14.0 Q 14.0 11.0 14.0 10.8 Q 7.4 6.0 6.9 6.0 Q 5.1 5.1 5.1 5.1 Q 6.0 2.2 2.9 2.2 Q 6.0 2.2 5.0 Q 2.2 4.4 2.2 Q 2.2 1.2 1.2 Q 6.1 1.2 0.1 Q 3.8 1.3 0.6 1.3 Q 1.3 0.5 0.1 Q 0.9 0.9 0.0 Q 2.2 0.9 6.4 0.5 Q 4.1 0.4 2.2 2.2 Q 2.2 2.2 2.2 4.7 2.2 Q 4.2" fill="#000"/>
</svg>