<?xml version="1.0" encoding="UTF-8"?>
<svg viewBox="0 0 128 128" xmlns="http://www.w3.org/2000/svg">
  <!-- Generated by FONTe AI -->
  <!-- Style: sans-serif, Character: s -->
  <path d="M 15.4 1.3 Q 11.8 1.3 11.8 2.3 Q 5.0 4.6 4.6 4.6 Q 4.6 4.6 4.6 6.1 Q 6.0 5.1 10.6 4.9 Q 13.7 3.8 18.7 3.8 Q 22.5 3.8 24.7 3.8 Q 28.5 3.8 30.7 3.8 Q 30.7 3.8 30.7 3.8 Q 30.7 3.8 31.5 8.6 Q 32.5 14.0 33.3 14.0 Q 32.6 15.6 33.4 15.0 Q 32.0 16.5 31.7 19.6 Q 30.1 17.7 31.5 18.0 Q 28.2 15.0 24.4 10.4 Q 18.0 7.4 15.0 0.9 Q 11.8 1.3 9.6 1.3 Z M 0.0 62.7 H 66.6 V 62.7 H 0.0 Z M 0.0 2.6 H 63.4 V 0.0 H 0.0 Z M 0.0 64.6 H 63.4 V 64.0 H 0.0 Z M 0.0 113.3 H 63.4 V 112.0 H 0.0 Z" fill="#000"/>
</svg>