<?xml version="1.0" encoding="UTF-8"?>
<svg viewBox="0 0 128 128" xmlns="http://www.w3.org/2000/svg">
  <!-- Generated by FONTe AI -->
  <!-- Style: sans-serif, Character: Y -->
  <path d="M 8.1 1.7 Q 8.1 1.7 5.4 1.7 Q 1.7 1.7 1.7 1.7 1.7 Q 1.7 1.7 1.7 Q 1.7 1.7 0.9 1.7 Q 1.7 1.7 0.3 Q 1.7 1.7 1.7 1.7 1.7 Q 0.6 3.2 1.8 1.7 Q 1.7 0.1 1.7 Q 1.7 1.7 1.7 1.7 Q 0.6 1.7 1.4 1.7 Q 1.7 0.3 1.7 L 4.0 1.7 Q 4.7 1.7 1.7 1.7 Q 1.7 1.7 1.7 0.0 L 1.3 1.0 L 0.4 Q 2.7 0.3 0.1 Q 4.6 4.5 7.6 4.0 Q 4.0 4.0 4.0 Q 3.8 2.4 3.3 Q 2.0 3.3 3.8 Q 2.2 0.3 1.5 1.2 Q 0.3 2.0 0.4 0.1 Q 1.3 3.2 2.0 3.6 Q 5.2 4.6 7.8 8.1 Q 8.8 12.8 12.7 16.0 L 15.9 29.8 Q 18.8 33.0 15.9 31.6 Q 11.5 32.4 6.7 31.7 Q 4.0 36.2 5.0 36.1 Q 3.6 35.5 4.4 39.3 Q 3.3 36.2 4.7 33.0 Q 4.2 35.5 4.7 35.3 Q 4.7 33.9 5.2 33.5 Q 4.7 32.9 5.2 35.1 Q 4.6 35.1 5.2 34.2 Q 4.2 33.7 5.2 37.5 Q 4.6 38.4 4.7 41.5 Q 6.0 44.4 5.1 48.1 Q 9.7 49.0 12.3 49.2 Q 16.1 50.6 20.9 50.6 Q" fill="#000"/>
</svg>