<?xml version="1.0" encoding="UTF-8"?>
<svg viewBox="0 0 128 128" xmlns="http://www.w3.org/2000/svg">
  <!-- Generated by FONTe AI -->
  <!-- Style: sans-serif, Character: D -->
  <path d="M 127.9 88.3 Q 127.9 88.3 127.9 88.3 Q 127.9 79.7 127.9 72.7 Q 127.9 63.7 127.9 50.6 Q 127.9 41.2 127.9 37.0 Q 127.9 29.2 127.9 26.5 Q 127.9 18.6 127.1 14.1 Q 127.9 4.6 127.9 0.1 Q 127.9 0.0 127.9 0.0 H 10.2 Q 10.9 0.0 10.9 0.0 H 6.7 V 127.9 H 22.4 Q 22.8 127.9 22.8 127.9 Q 21.9 127.9 22.0 127.9 Q 22.0 127.9 22.8 127.9 Q 20.4 127.9 20.4 127.9 H 0.0 Q 0.0 127.9 0.0 127.9 Q 0.0 127.9 2.4 127.9 Q 3.1 127.9 9.7 127.9 Q 16.5 127.9 22.3 127.9 Q 28.7 127.9 30.8 127.9 Q 33.0 127.9 38.5 127.9 Q 39.3 127.9 37.5 127.9 Q 36.7 127.9 34.8 127.9 Q 32.0 127.9 30.2 127.9 Q 29.7 127.9 29.7 127.9 Q 25.3 127.9 22.8 127.9 Q 20.6 127.9 18.3 127.9 Q 15.5 127.9 11.0 127.9 Q 8.6 127.9 8.6 127.9 V 127.9 Q 9.5 127.9 11.1 127.9 Q 15.1 127.9 21.6 127.9 Q 27.0 127.9 32.4 127.9 Q 39.6 127.9 42.9 127.9 Q 47.7 127.9 49.4 127.9 V 127.9 Q 52.5 127.9 52.5 127.9 Q 54.3 127.9 54.3 127.9 Q 57.7 127.9 58.9 127.9 Q 59.4 127.9 62.5 127.9 Q 63.0 127.9 66.4 127.9 Q 66.4 127.9 66.2 127.9 Q 66.6 127.9 69.1 127.9 Z" fill="#000"/>
</svg>