<?xml version="1.0" encoding="UTF-8"?>
<svg viewBox="0 0 128 128" xmlns="http://www.w3.org/2000/svg">
  <!-- Generated by FONTe AI -->
  <!-- Style: sans-serif, Character: 5 -->
  <path d="M 9.0 2.6 V 2.6 Q 8.3 2.6 10.9 1.2 Q 10.9 1.9 10.5 1.9 Q 7.4 2.3 5.0 3.8 V 7.0 Q 5.4 7.8 9.0 7.8 Q 10.6 7.8 7.8 11.9 Q 7.8 16.1 7.8 16.9 Q 7.8 19.2 7.8 22.8 Q 7.8 23.9 7.8 23.9 Q 7.8 23.0 9.7 25.3 Q 9.6 23.0 11.4 25.3 Q 12.5 23.6 11.4 25.3 Q 12.7 25.3 16.9 23.8 Q 16.8 21.2 14.3 22.4 Q 13.4 18.8 14.2 12.8 Q 17.3 8.3 18.9 8.3 Q 23.9 8.3 25.0 8.3 Q 32.6 8.3 37.6 8.3 Q 38.1 8.3 42.1 9.7 Q 45.4 9.9 45.4 11.9 Q 45.4 16.4 46.0 21.2 Q 43.6 28.0 42.8 32.4 Q 38.7 32.4 36.7 31.5 Q 32.6 28.9 28.9 28.9 Q 25.2 27.3 23.2 27.6 Q 22.3 23.7 21.8 20.1 Q 21.8 16.0 19.6 16.3 Q 15.9 13.2 13.2 13.2 Q 13.2 13.2 13.2 14.6 Q 13.2 13.3 11.3 11.4 Q 11.8 11.0 11.0 11.0 Q 10.6 11.0 8.6 10.5 9.9 Q 9.9 9.9 9.9 9.9 Q 9.9 9.9 8.2 9.7 Q 8.6 5.0 10.9 7.3 Q 9.1 8.2 8.2 8.2 Q 12.0 9.0 10.6 12.7 Q 13.1 10.6 18.7 10.6 Q 22.5 11.0 24.3 12.2 Q 27.0 9.0 27.0 9.0 Q 25.7 7.7 26.9 7.7 Q 29.7 7.7 32.3 7.7 Q 33.0 7.7 33.8 7.7 Q 35.2 7.7 37.8 7.7 Q 37.8 10.0 38.7 11.6 Q 40.6 12.8 40.8 14.0 Q 40.2 16.3 40.2 21.2 Q 40.8 19.2 39.3 21.2 Q 37.8 20.4 40.2" fill="#000"/>
</svg>