<?xml version="1.0" encoding="UTF-8"?>
<svg viewBox="0 0 128 128" xmlns="http://www.w3.org/2000/svg">
  <!-- Generated by FONTe AI -->
  <!-- Style: sans-serif, Character: E -->
  <path d="M 7.8 0.0 V 0.9 L 6.4 7.8 V 67.2 Q 10.4 79.7 9.1 81.8 Q 10.9 83.3 9.6 83.3 Q 10.9 83.3 10.9 89.1 Q 11.1 89.1 12.0 89.1 Q 10.8 89.1 10.8 91.6 Q 9.3 91.6 9.3 91.6 Q 6.4 91.6 6.7 91.6 Q 8.4 91.6 8.2 92.7 Q 9.3 92.7 12.8 92.7 Q 13.7 92.7 12.9 92.7 Q 17.0 92.7 18.3 92.7 Q 21.2 92.7 22.1 92.7 Q 23.6 92.7 23.9 92.7 Q 21.8 92.7 21.8 92.7 Q 23.8 92.7 22.1 92.7 Q 24.1 92.7 25.5 92.7 Q 25.5 92.7 25.5 92.7 Q 23.2 92.7 23.2 92.7 Q 22.7 92.7 22.7 92.7 Q 22.1 92.7 22.1 92.7 Q 21.1 92.7 21.1 94.5 Q 23.6 92.7 23.2 92.7 Q 23.2 92.7 23.2 91.3 Q 23.2 88.1 23.2 88.1 L 23.2 80.3 Q 21.8 79.6 25.1 79.6 Q 25.1 80.0 25.1 80.0 Q 25.1 80.0 25.1 80.0 Q 25.9 80.0 25.5 80.0 Q 25.5 80.0 24.4 80.0 Q 23.2 80.0 23.2 80.0 Q 23.2 80.0 23.2 80.0 Q 23.2 80.0 23.2 80.0 23.2 80.0 Q 23.2 80.0 23.2 80.0 Q 23.2 80.0 23.2 80.0 Q 23.2 80.0 23.2 80.0 Q 23.2 80.0 23.2 80.0 Q 23.2 80.0 23.2 80.0 Q 23.2 80.0 23.2 80.0 Q 23.2 80.0 23.2 80.0 Q 23.2 80.0 23.2 80.0 Q 23.2 80.0 23.2 80.0 Q 23.2 80.0 23.2 80.0 Q 23.2 80.0 23.2 80.0 Q 23.2 80.0 23.2 80.0 Q 23.2 80.0 23.2 80.0 Q 23.2 80.0 23.2 80.0 Q 23.2 80.0 23.2 80.0 Q 25.1" fill="#000"/>
</svg>