<?xml version="1.0" encoding="UTF-8"?>
<svg viewBox="0 0 128 128" xmlns="http://www.w3.org/2000/svg">
  <!-- Generated by FONTe AI -->
  <!-- Style: sans-serif, Character: Q -->
  <path d="M 127.9 2.4 Q 127.9 2.4 127.9 4.7 Q 127.9 8.4 127.9 5.9 Q 121.0 2.7 113.3 0.5 Q 93.4 2.7 77.6 2.7 Q 69.8 4.1 65.2 4.1 Q 48.4 3.5 34.4 3.5 Q 26.1 3.5 16.4 4.5 Q 7.9 6.9 5.8 15.0 Q 5.9 25.3 9.1 35.6 Q 11.8 46.7 16.9 56.2 Q 21.4 69.0 28.0 75.3 Q 32.4 87.0 37.0 87.0 Q 43.4 87.0 51.8 87.0 Q 60.2 87.0 63.1 89.3 Q 69.5 89.0 74.1 Q 74.2 76.7 74.2 74.2 Q 76.0 73.2 74.6 67.6 Q 76.0 62.3 76.0 48.3 Q 76.0 39.2 78.1 33.5 Q 73.9 23.7 69.2 18.7 Q 70.1 12.7 61.6 8.1 Q 53.1 1.4 43.4 2.4 Q 33.8 2.4 26.9 2.4 Q 16.9 4.6 13.3 4.6 Q 11.3 6.0 15.4 6.4 Q 16.9 6.4 24.6 6.4 Q 28.3 6.4 35.3 6.4 Q 40.8 6.4 44.5 10.2 Q 50.6 12.0 55.8 17.5 Q 57.9 23.3 57.3 28.2 Q 58.2 38.0 58.5 42.1 Q 58.5 44.4 58.6 42.6 Q 57.2 40.7 60.7 36.5 Q 57.6 34.9 60.7 30.5 Q 57.3 21.8 56.8 13.2 Q 54.4 6.7 48.0 1.9 Q 40.8 2.4 29.2 2.4 Q 21.0 2.4 15.1 2.4 Q 14.2 2.4 10.4 0.3 Q 6.5 0.1 6.7 2.4 Q 5.6 5.5 3.5 4.4 Q 3.1 5.4 3.3 7.0 Q 5.1 10.1 7.9 Q 12.2 7.9 17.8 10.6 Q 23.4 10.6 30.2 10.6 Q 32.5 11.3" fill="#000"/>
</svg>