<?xml version="1.0" encoding="UTF-8"?>
<svg viewBox="0 0 128 128" xmlns="http://www.w3.org/2000/svg">
  <!-- Generated by FONTe AI -->
  <!-- Style: sans-serif, Character: a -->
  <path d="M 11.5 0.6 H 6.4 Q 6.4 0.6 7.7 Q 1.2 7.7 4.5 5.6 Q 7.7 7.7 7.7 9.3 Q 7.7 11.9 11.9 14.0 Q 16.0 16.0 18.3 23.2 Q 21.5 21.5 24.2 27.0 Q 23.6 25.2 25.7 25.5 Q 24.2 24.6 27.5 27.5 Q 28.3 23.2 23.2 23.2 Q 24.7 18.8 27.4 18.8 25.9 Q 25.3 25.3 25.6 27.5 Q 23.2 24.4 23.4 20.7 L 25.3 0.6 Q 21.4 0.6 13.7 0.6 Z M 20.0 10.2 Q 20.0 11.0 25.7 12.3 Q 23.8 12.7 31.4 12.7 Q 32.3 16.3 32.0 12.7 Q 30.0 12.7 34.0 12.7 Q 29.1 17.7 27.0 19.1 Q 29.3 23.2 29.4 25.9 Q 26.5 26.5 29.7 27.1 Q 30.1 22.5 29.4 22.5 Z" fill="#000"/>
</svg>