<?xml version="1.0" encoding="UTF-8"?>
<svg viewBox="0 0 128 128" xmlns="http://www.w3.org/2000/svg">
  <!-- Generated by FONTe AI -->
  <!-- Style: sans-serif, Character: B -->
  <path d="M 1.4 1.4 1.9 V 1.4 L 0.9 1.4 L 6.7 0.9 Q 3.7 2.8 1.4 4.9 V 4.1 L 10.2 V 68.6 H 14.8 V 82.9 Q 13.2 85.6 15.6 87.9 Q 15.1 87.9 14.8 89.2 Q 14.8 90.9 14.6 90.9 H 22.0 V 91.4 H 53.8 L 58.5 0.0 H 1.4 V 1.4 Q 38.0 1.4 32.5 1.4 Z M 1.4 1.4 Q 23.3 1.4 20.1 1.4 Q 12.9 1.4 11.1 1.4 Z M 6.9 6.9 H 4.9 V 68.6 H 18.2 V 76.8 H 16.0 Z M 21.0 V 50.3 H 30.7 V 47.6 Z M 34.6 50.9 H 49.9 V 49.8 Z" fill="#000"/>
</svg>