<?xml version="1.0" encoding="UTF-8"?>
<svg viewBox="0 0 128 128" xmlns="http://www.w3.org/2000/svg">
  <!-- Generated by FONTe AI -->
  <!-- Style: sans-serif, Character: c -->
  <path d="M 12.8 1.5 Q 14.8 1.5 15.4 2.8 Q 7.0 5.8 7.0 11.1 Q 6.0 18.3 4.7 27.6 Q 4.7 39.2 8.1 44.5 Q 15.5 57.7 22.7 65.5 Q 26.4 65.5 37.4 68.5 Q 42.9 66.0 44.4 68.5 Q 47.2 66.9 49.2 63.2 V 64.9 L 49.9 68.6 H 56.6 V 56.3 Q 56.8 55.7 61.4 55.7 Q 53.6 53.6 52.9 52.9 Q 49.2 52.9 49.8 52.9 Q 48.6 47.7 43.9 45.1 Q 38.5 34.9 31.4 33.9 Q 28.7 22.9 22.5 20.7 Q 20.0 13.4 13.4 12.5 Q 18.9 8.6 18.9 2.4 Q 24.7 1.5 24.7 1.5 Z" fill="#000"/>
</svg>