<?xml version="1.0" encoding="UTF-8"?>
<svg viewBox="0 0 128 128" xmlns="http://www.w3.org/2000/svg">
  <!-- Generated by FONTe AI -->
  <!-- Style: sans-serif, Character: L -->
  <path d="M 1.8 0.9 Q 0.9 0.9 0.9 Q 0.9 0.9 0.9 0.5 Q 3.1 1.0 3.7 1.2 Q 3.1 3.8 5.6 8.4 Q 7.3 9.1 8.4 11.0 V 65.3 Q 7.2 65.3 7.2 70.1 Q 6.3 70.3 7.7 76.0 Q 7.7 81.0 7.7 85.6 Q 7.7 85.6 7.8 89.0 Q 9.2 89.6 13.3 89.6 Q 14.7 89.6 20.2 89.6 Q 21.6 89.6 26.0 88.1 Q 28.0 88.1 28.8 88.1 Q 31.7 88.1 32.9 88.1 Q 30.6 88.1 30.7 89.2 Q 30.7 89.0 31.6 84.7 V 0.0 Q 25.9 0.9 25.1 0.9 Q 25.1 0.9 23.8 0.9 Q 23.9 0.9 24.2 0.9 Q 23.0 0.9 21.1 0.9 Q 18.8 0.9 19.2 0.9 Q 15.9 0.9 11.8 0.0 Q 9.0 1.2 6.9 1.3 Z" fill="#000"/>
</svg>