<?xml version="1.0" encoding="UTF-8"?>
<svg viewBox="0 0 128 128" xmlns="http://www.w3.org/2000/svg">
  <!-- Generated by FONTe AI -->
  <!-- Style: sans-serif, Character: b -->
  <path d="M -2.2 0.1 Q -0.3 -1.9 -0.6 L -0.5 -1.0 L -0.4 0.8 Q -1.5 -1.4 -1.3 -0.3 Q -2.6 -0.1 -0.6 1.8 Q -0.9 -1.0 -0.5 -0.4 Q -2.0 -1.7 2.4 1.2 L 1.9 1.5 Q 1.4 1.8 2.3 5.0 Q 4.6 9.9 4.7 11.3 Q 8.4 11.4 9.0 14.5 Q 11.8 19.2 13.2 20.5 Q 18.4 22.7 18.2 27.0 Q 17.7 29.7 16.4 33.7 L 11.3 45.4 Q 13.7 53.1 13.8 56.6 Q 11.6 59.0 14.3 61.4 Q 14.5 64.8 13.2 65.3 Q 11.0 67.2 11.8 68.0 Q 12.2 70.3 11.9 70.8 Q 10.0 72.3 12.3 77.2 Q 14.3 78.8 17.9 81.5 Q 19.6 89.1 20.6 87.6 Q 26.8 88.6 32.3 90.1 Q 34.9 88.7 37.9 87.3 Q 41.0 82.4 41.7 80.5 Q 45.1 80.4 46.5 76.9 Q 49.4 75.0 49.2 74.0 Q 50.9 74.2 50.3 71.0 Q 52.7 67.5 54.8 65.2 Q 57.9 62.2 56.7 60.0 Q 56.6 61.4 57.5 60.3 Q 55.4 58.1 55.0 55.2 Q 50.8 49.7 50.0 48.0 Q 49.9 43.4 50.9 36.4 Q 48.3 29.2 44.8 22.4 Q 44.4 13.3 44.9 12.7 Q 48.1 8.2 49.4 8.4 Q 55.2 8.6 58.4 4.7 Q 62.5 2.2 69.6 0.1 Q 69.9 -0.5 65.9 -0.9 Q 65.4 -0.6 67.1 -0.4 Q 63.1 -0.8 59.5 -0.1 Q 56.6 -0.3 53.1 -0.5 Q 49.0 -1.0 41.2 -1.9 Q 40.2 -2.2 33.8 -0.1 Q 29.4 -0.6 26.1 -1.2 Q 22.5 -0.3 18.4 -0.0 Q 10.9 -0.9 6.9 -0.1 Q 6.4 -0.4 -1.7 -0.6 Q -0.3 -0.8 -1.0 Z M 0.0 -62.7 H 64.0 V -58.8 H 66.8 V -61.4 H 0.0 Z M 0.0 2.6 H 67.3 V 0.8 H 70.4 V 126.1 H 0.0 Z M M 0.0 64.6 H 73.1 V 64.0 H 81.9 V 64.0 H 0.0 Z" fill="#000"/>
</svg>