<?xml version="1.0" encoding="UTF-8"?>
<svg viewBox="0 0 128 128" xmlns="http://www.w3.org/2000/svg">
  <!-- Generated by FONTe AI -->
  <!-- Style: sans-serif, Character: l -->
  <path d="M 2.9 2.9 V 0.4 Q 2.2 2.0 2.0 Q 1.8 2.0 0.6 0.3 0.4 Q 0.3 0.3 0.3 Q 0.3 0.3 0.3 0.3 1.5 Q 0.3 3.6 0.9 Q 0.1 0.1 0.1 0.3 Q 0.3 0.1 0.1 Q 0.1 0.1 0.0 0.1 Q 0.1 2.0 2.8 1.0 Q 3.3 2.8 2.8 3.5 Q 3.1 7.0 5.9 5.9 L 9.7 V 91.4 Q 12.3 90.1 12.3 90.1 Q 12.3 90.1 12.2 90.1 Q 14.3 90.1 15.1 85.2 Q 17.7 85.2 21.4 85.2 Q 24.8 85.2 24.8 84.0 Q 26.6 82.4 26.6 80.5 Q 27.6 75.9 27.6 75.9 Q 27.3 77.2 27.6 74.8 Q 25.5 67.7 25.1 62.7 Q 27.0 58.9 25.6 58.9 Q 26.0 51.3 24.1 46.5 Q 24.1 43.9 23.3 41.9 Q 25.9 38.9 27.6 37.6 V 0.8 Q 31.2 1.8 26.0 0.3 Q 24.1 0.8 24.1 0.1 Q 20.0 1.7 20.0 1.7 Q 15.5 1.7 9.9 1.7 Q 5.2 0.4 0.4 0.4 Q 4.5 1.7 1.7 1.7 Q 1.3 1.3 1.3 Q 19.5 1.3 20.0 1.3 Q 20.9 1.3 22.1 1.3 Q 23.2 1.9 20.4 2.6 Z" fill="#000"/>
</svg>