<?xml version="1.0" encoding="UTF-8"?>
<svg viewBox="0 0 128 128" xmlns="http://www.w3.org/2000/svg">
  <!-- Generated by FONTe AI -->
  <!-- Style: sans-serif, Character: A -->
  <path d="M 4.6 0.0 V 80.6 Q 2.4 89.6 2.6 92.5 Q 3.5 95.1 5.0 93.7 Q 5.9 92.0 6.8 89.6 Q 8.6 89.6 9.9 89.6 Q 11.8 89.6 12.4 90.9 Q 13.6 89.6 12.4 91.4 Q 12.8 87.3 13.8 86.4 Q 16.0 86.1 17.7 86.0 V 89.6 H 26.4 V 86.0 H 37.0 Q 47.6 92.2 59.0 92.9 Q 67.5 90.2 75.8 84.2 Q 87.3 80.5 92.2 76.5 Q 89.3 72.3 92.2 67.1 Q 90.9 62.0 87.0 59.1 Q 86.7 56.7 86.4 59.0 Q 85.1 58.4 85.2 61.4 V 0.0 H 75.0 V 0.0 H 63.7 V 0.0 Z" fill="#000"/>
</svg>