<?xml version="1.0" encoding="UTF-8"?>
<svg viewBox="0 0 128 128" xmlns="http://www.w3.org/2000/svg">
  <!-- Generated by FONTe AI -->
  <!-- Style: sans-serif, Character: G -->
  <path d="M 127.9 1.5 H 127.9 Q 127.9 1.5 127.9 1.5 Q 127.9 1.5 127.9 0.6 Q 127.9 5.5 127.9 12.3 Q 127.9 19.8 127.9 30.8 Q 127.9 37.4 127.9 42.5 Q 127.9 49.4 127.9 53.6 Q 127.9 57.2 127.9 63.9 Q 127.9 78.1 127.9 127.9 Q 127.9 127.9 127.9 127.9 Q 127.9 127.9 127.9 127.9 Q 127.9 127.9 127.9 127.9 Q 127.9 127.9 127.9 127.9 Q 127.9 127.9 127.9 127.9 Q 127.9 127.9 127.9 127.9 Q 127.9 127.9 127.9 127.9 Q 127.9 127.9 127.9 127.9 Q 127.9 127.9 127.9 127.9 Q 127.9 127.9 127.9 127.9 L 127.9 127.9 Q 127.9 127.9 127.9 127.9 Q 127.9 127.9 127.9 127.9 Q 127.9 127.9 127.9 127.9 Q 127.9 127.9 127.9 127.9 Q 127.9 127.9 127.9 127.9 Q 127.9 127.9 127.9 127.9 Q 127.9 127.9 127.9 127.9 Q 127.9 127.9 127.9 127.9 Q 127.9 127.9 127.9 127.9 Q 127.9 127.9 127.9 127.9 Q 127.9 127.9 127.9 127.9 Q 127.9 127.9 127.9 127.9 Q 127.9 127.9 127.9 127.9 Q 127.9 127.9 127.9 127.9 Q 127.9 127.9 127.9 127.9 Q 127.9 127.9 127.9 127.9 Q 127.9 127.9 127.9 127.9 Q 127.9 127.9 127.9 127.9 Q 127.9 127.9 127.9 127.9 Q 127.9 127.9 127.9 127.9 Q 127.9 127.9 127.9 127.9 Q 127.9 127.9 127.9 127.9 Q 127.9 127.9 127.9 127.9 L 127.9 127.9 Q 127.9 127.9 127.9 127.9 Q 127.9 127.9 127.9 127.9 Q 127.9 127.9 127.9 127.9 Q 127.9 127.9 127.9 127.9 Q 127.9 127.9 127.9 127.9 Q 127.9 127.9 127.9 127.9 Q 127.9 127.9" fill="#000"/>
</svg>