<?xml version="1.0" encoding="UTF-8"?>
<svg viewBox="0 0 128 128" xmlns="http://www.w3.org/2000/svg">
  <!-- Generated by FONTe AI -->
  <!-- Style: sans-serif, Character: a -->
  <path d="M 1.5 Q 1.5 1.5 1.5 Q 1.5 1.5 1.5 1.5 Q 1.5 1.5 2.9 2.9 Q 4.1 4.1 5.6 4.5 Q 6.0 11.6 6.7 10.6 Q 5.0 7.0 15.6 7.0 Q 11.6 7.4 10.9 12.9 Q 10.0 12.2 10.4 16.4 Q 10.4 9.7 9.7 7.9 Q 10.2 8.6 9.0 10.5 Q 9.7 13.6 12.0 7.9 Q 9.7 9.9 12.8 6.7 Q 7.0 7.0 5.6 Q 6.1 10.9 4.9 15.6 Q 5.4 7.4 5.0 6.8 Q 5.4 5.2 3.3 Q 9.6 6.7 6.5 7.9 Q 7.0 9.2 11.5 Q 4.5 6.7 4.0 4.0 Q 6.3 8.7 5.5 6.0 Q 7.6 7.6 3.8 Q 7.0 8.3 8.1 Q 10.0 10.0 17.5 8.2 Q 10.2 9.0 11.0 4.9 Q 7.3 10.4 6.5 7.9 Q 7.9 6.5 3.3 6.5 Q 5.4 5.4 5.4 5.4 Q 7.4 7.4 7.4 11.8 Q 5.0 6.4 Q 5.6 4.1 4.1 7.4 Q 8.4 8.7 3.8 10.0 Q 7.2 10.0 10.0 Q 5.5 10.4 10.4 Q 11.6 10.0 11.6 5.9 Q 13.7 11.0 10.0 12.0 Q 12.3 11.8 10.4 Z" fill="#000"/>
</svg>