<?xml version="1.0" encoding="UTF-8"?>
<svg viewBox="0 0 128 128" xmlns="http://www.w3.org/2000/svg">
  <!-- Generated by FONTe AI -->
  <!-- Style: sans-serif, Character: B -->
  <path d="M 16.0 Q 14.0 Q 23.4 18.9 22.1 Q 20.4 22.1 Q 23.6 15.1 19.6 19.2 Q 18.7 21.4 15.6 18.0 Q 13.7 12.5 13.1 7.8 Q 10.2 10.2 10.2 Q 10.8 12.2 10.9 Q 7.8 11.8 11.0 8.8 Q 7.3 8.7 9.1 7.7 Q 10.0 12.0 6.7 Q 8.8 11.6 Q 7.7 11.6 12.4 Q 12.9 12.9 11.6 12.9 Q 9.5 7.0 11.0 11.1 Q 11.1 11.6 12.4 Q 12.2 9.7 12.2 12.2 Q 11.3 12.2 12.2 13.1 Q 13.4 13.1 13.3 14.3 Q 12.5 13.4 18.4 11.6 Q 12.2 19.8 16.6 15.7 Q 14.3 22.4 12.8 Q 12.9 17.7 11.4 11.6 Q 16.4 11.8 20.0 16.4 Q 15.9 19.7 7.9 Q 17.2 8.7 19.3 Q 9.5 16.8 10.0 15.4 15.4 Q 13.1 12.3 13.4 Q 7.9 10.0 17.0 8.8 Q 9.0 9.0 9.0 9.9 Q 5.1 8.7 6.0 10.5 Q 8.3 3.1 9.0 8.3 Z M 7.4 Q 5.4 Q 7.9 3.6 6.7 5.0 Q 7.9 6.5 4.1 11.3 Q 7.0 7.6 7.6 Q 7.4 9.1 9.1 4.5 Q 12.2 4.6 8.4 6.3 Q 11.6 4.9 18.6 7.9 5.4 Q 3.8 Q 7.6 7.6 5.9 5.9 7.6 4.6 5.4 Q 6.4 2.6 4.9 7.7 Q 5.1 5.9 3.5 3.8 Q 6.4 3.2 0.4 0.4 Q 2.4 5.1 0.3 0.3 Q 9.0 1.8 1.8 1.8 6.7 Q 5.0 0.9 6.7 3.8 Q 4.7 2.9 2.9 0.4 0.3 Q 0.9 0.0 4.0 4.0 0.1 0.1 Q 0.0 1.4 0.1 0.1 0.1 0.1 0.1 0.1 0.1 0.1 0.1 0.1 0.1 0.1 0.1 0.1 0.1" fill="#000"/>
</svg>