<?xml version="1.0" encoding="UTF-8"?>
<svg viewBox="0 0 128 128" xmlns="http://www.w3.org/2000/svg">
  <!-- Generated by FONTe AI -->
  <!-- Style: sans-serif, Character: A -->
  <path d="M 10.5 0.0 H 4.6 L 2.4 2.4 Q 4.6 3.2 3.2 5.8 Q 5.8 7.0 5.8 5.8 Q 5.8 5.8 5.8 5.8 Q 5.8 5.8 5.8 5.8 Q 5.8 5.8 5.8 5.8 Q 5.8 5.8 5.8 5.8 Q 5.8 5.8 5.8 5.8 Q 5.8 5.8 5.8 5.8 V 4.9 H 8.8 Q 7.4 7.4 10.2 9.3 Q 6.7 6.7 6.7 6.7 Q 6.7 6.7 6.7 6.7 Q 6.7 6.7 7.0 7.0 Q 7.0 7.0 7.0 7.0 7.0 Q 7.0 7.0 7.0 7.0 H 7.9 Q 7.0 7.0 4.7 8.8 V 4.6 Q 8.8 4.0 11.1 3.7 Q 12.8 5.5 16.9 4.1 Q 21.8 1.3 21.5 2.4 Q 26.9 5.5 26.2 5.5 Q 30.5 5.4 36.5 5.4 H 40.3 V 9.7 Q 44.7 16.1 50.4 19.3 Q 56.2 20.9 58.4 26.9 Q 59.3 28.0 58.5 29.7 Q 60.2 28.0 60.2 27.6 Q 60.2 28.3 58.4 28.4 Q 62.6 25.5 64.8 20.9 Q 64.4 17.3 61.8 10.2 Q 59.6 8.2 55.3 7.4 Q 52.7 7.4 49.2 7.4 Q 50.2 7.4 47.7 7.4 Q 49.9 7.9 47.2 7.9 Q 43.5 8.4 40.7 8.4 Q 34.3 8.4 30.7 9.0 Q 38.0 11.4 33.3 14.3 Q 36.0 18.3 36.4 21.0 Q 27.9 15.6 21.8 14.3 Q 18.0 9.5 15.2 6.9 Q 7.6 6.3 3.6 5.9 Q 2.7 2.7 3.8 1.2 Z M 0.0 64.6 H 67.3 V 64.0 H 68.7 V 64.0 H 0.0 Z M 0.0 64.6 H 64.0 V 64.0 H 0.0 Z M 0.0 64.6 H 70.1 V 64.0 H 0.0 Z M 0.0" fill="#000"/>
</svg>