<?xml version="1.0" encoding="UTF-8"?>
<svg viewBox="0 0 128 128" xmlns="http://www.w3.org/2000/svg">
  <!-- Generated by FONTe AI -->
  <!-- Style: sans-serif, Character: A -->
  <path d="M 0.0 V 127.9 L Q 127.9 Q 127.9 Q 127.9 Q 127.9 29.4 127.9 Q 127.9 1.2 Q 11.5 127.9 Q 127.9 Q 127.9 Q 127.9 Q Q 8.4 Q 14.1 Q 0.0 25.6 Q 48.6 Q 127.9 Q 30.5 Q 50.2 Q 56.6 56.6 Q 53.2 56.3 Q 60.9 Q -19.3 Q 31.1 Q 7.8 Q 43.6 Q 11.8 Q 18.0 18.7 Q 30.5 Q 31.5 Q 19.1 0.0 20.5 Q 50.2 Q 127.9 Q 51.2 Q 47.2 Q 11.0 Q 42.9 42.9 Q -11.9 Q 14.1 Q -19.3 Q 48.4 Q 127.9 Q 43.6 Q 43.5 Q 127.9 Q Q 21.8 Q 55.0 Q 58.8 Q 127.9 Q 55.3 127.9 Q 48.1 127.9 Q 43.6 Q Q 43.5 Q 127.9 Q 77.1 127.9 Q 6.4 Q 50.4 Q 127.9 Q 65.4 Q 27.4 127.9 Q 127.9 Q 127.9 127.9 43.6 Q 127.9 Q 127.9 Q 127.9 Q 127.9 Q 127.9 Q 127.9 18.4 52.2 Q 127.9 Q 127.9 Q 127.9 Q 58.8 Q 91.8 Q 31.2 Q 127.9 51.2 Q Q 51.8 Q 11.0 35.2 Q 50.4 Q 127.9 Q 43.6 17.2 74.8 Q Q 22.4 Q 8.4 Q 127.9 36.0 Q 38.3 Q 127.9 16.0 Z M Q 50.4 Q 56.6 Q Q 55.3 Q 11.5 11.5 Q Q 57.7 Q 31.6 Q 11.0 127.9 Q Q 60.9 Q 60.2 Q 74.9 127.9 Q 33.5 Q 43.5 Q 127.9 Q 50.2 Q 23.7 Q 127.9 Q 60.0 127.9 11.0 16.8 Q 127.9 Q Q 127.9 Q 32.8 46.7 Q 14.1 Q Q 127.9 Q 127.9 Q 127.9 Q 60.9 Q 0.0 127.9 Q 127.9 Q 26.6 Q 127.9 127.9 Q 23.7 Q 127.9 Q 127.9 Q 127.9 Q 127.9 L 47.2 Q 127.9 0.0 Q 127.9 Q 25.6 Q 127.9 Q 127.9 Q Q 127.9 Q 127.9 Q 127.9 Q 21.8 Q 127.9 Q Z" fill="#000"/>
</svg>