<?xml version="1.0" encoding="UTF-8"?>
<svg viewBox="0 0 128 128" xmlns="http://www.w3.org/2000/svg">
  <!-- Generated by FONTe AI -->
  <!-- Style: sans-serif, Character: S -->
  <path d="M 24.2 2.2 Q 21.8 2.2 21.1 0.6 Q 14.8 1.7 9.9 4.1 Q 6.9 5.5 6.5 6.9 L 9.6 10.9 Q 12.5 9.9 13.3 Q 12.7 12.7 10.9 17.7 Q 12.7 16.3 15.2 15.0 Q 13.8 13.8 16.9 16.1 Q 19.2 15.9 16.9 20.9 Q 13.8 23.2 13.8 23.6 Q 14.5 23.2 14.0 23.2 Q 14.0 23.2 12.8 24.7 Q 12.8 23.8 12.8 23.2 Q 12.8 19.8 12.8 18.3 Q 12.8 17.2 12.8 16.0 Q 13.7 15.9 14.0 14.5 Q 16.5 15.4 15.4 18.3 Q 17.9 20.1 16.6 21.2 Q 14.7 21.6 15.0 25.6 Q 13.6 28.7 12.9 30.2 Q 15.0 31.9 12.5 31.9 Q 12.5 34.7 15.0 38.0 Q 15.0 43.6 15.0 47.4 Q 15.0 51.7 17.8 51.7 Q 17.8 55.2 19.8 55.3 Q 23.8 55.2 24.6 56.6 Q 28.5 56.6 30.8 56.6 Q 32.9 56.4 35.1 56.4 Q 43.0 57.7 45.7 62.1 Q 45.7 65.4 45.4 65.4 Q 43.9 65.4 43.6 65.4 Q 40.3 65.4 34.9 65.4 Q 31.9 65.4 31.0 59.4 Q 26.8 57.1 26.1 57.1 Q 20.9 54.7 18.9 54.8 Q 18.9 52.4 18.9 50.6 Q 18.9 50.9 18.6 51.3 Q 16.9 46.5 16.0 47.6 Q 17.4 43.8 18.3 42.8 Q 19.3 42.8 18.4 39.9 Q 18.4 41.0 18.3 39.3 Q 18.3 41.1 18.3 39.9 Q 18.3 39.3 18.9 36.6 Q 18.9 37.2 18.9 34.4 Q 19.8 35.5 20.1 34.7 Q 21.6 35.3 21.9 35.7 Q 25.1 38.4 23.6 38.8 Q 23.0 38.4 22.4 36.7 Q 22.7 41.6 23.2 42.9 Q 23.9 43.1 26.1 44.5" fill="#000"/>
</svg>