<?xml version="1.0" encoding="UTF-8"?>
<svg viewBox="0 0 128 128" xmlns="http://www.w3.org/2000/svg">
  <!-- Generated by FONTe AI -->
  <!-- Style: sans-serif, Character: J -->
  <path d="M 5.8 29.4 Q 5.8 28.7 5.8 26.1 Q 5.8 24.3 5.1 24.3 Q 3.7 23.4 3.7 22.5 Q 3.7 21.4 9.5 15.6 Q 7.7 12.4 7.9 8.3 Q 11.9 10.8 10.8 7.0 Q 15.4 6.4 14.3 2.2 Q 13.8 2.2 13.2 2.2 Q 14.3 2.2 12.2 2.2 Q 15.5 2.2 15.6 2.2 Q 14.2 2.3 15.2 2.3 Q 13.8 1.3 12.7 1.4 Q 13.3 0.6 10.6 1.3 Q 12.7 0.1 12.7 1.4 Q 12.3 0.5 12.9 0.4 Q 9.7 0.5 10.1 0.5 Q 0.1 2.3 2.4 0.5 Q 3.6 2.0 3.2 1.3 Q 0.5 0.8 1.9 Q 3.8 2.3 2.3 2.3 2.3 Q 2.3 0.5 0.5 Q 0.5 0.3 0.6 Q 0.4 2.2 0.8 0.1 Q 0.3 0.1 0.1 Q 0.1 0.1 0.1 0.1 Q 0.1 0.1 1.2 Q 1.0 3.5 0.3 Q 0.1 0.1 0.1 0.1 Q 0.1 0.1 2.8 0.1 Q 3.8 0.1 3.3 Q 4.2 4.2 4.2 4.2 Q 4.0 4.2 7.2 7.4 Q 9.1 7.4 11.5 10.8 Q 9.7 12.2 12.2 11.8 Q 13.6 16.9 18.2 18.2 Q 21.9 21.2 24.2 25.9 Q 25.2 29.1 29.7 28.7 Q 27.9 33.2 29.8 31.6 Q 32.1" fill="#000"/>
</svg>