<?xml version="1.0" encoding="UTF-8"?>
<svg viewBox="0 0 128 128" xmlns="http://www.w3.org/2000/svg">
  <!-- Generated by FONTe AI -->
  <!-- Style: sans-serif, Character: 9 -->
  <path d="M 19.2 1.5 Q 13.3 1.5 10.1 0.3 Q 6.7 0.0 4.1 0.1 Q 1.8 0.4 4.5 4.5 Q 4.5 4.5 4.5 7.6 Q 11.5 9.9 15.2 11.5 Q 22.0 14.5 23.2 14.5 Q 23.3 11.0 25.7 11.0 Q 31.5 11.0 34.9 11.8 Q 36.2 9.1 36.2 9.1 Q 37.8 7.4 38.1 7.9 Q 38.3 5.9 34.8 5.4 Q 34.0 5.4 29.1 5.4 Q 25.7 5.4 21.8 5.4 Q 14.6 4.7 10.5 3.3 Q 7.3 1.5 7.7 1.5 Q 7.7 1.5 7.7 0.4 Q 6.9 1.3 4.9 1.3 Q 3.6 1.5 1.5 1.5 0.1 Q 1.5 1.5 1.5 1.5 Q 1.5 1.5 1.5 1.5 Q 1.5 1.5 1.5 Q 1.5 1.5 1.5 Q 1.5 6.7 1.5 Q 1.5 1.5 1.2 Q 1.5 1.5 1.5 0.1 Q 1.5 1.5 1.5 Q 1.5 0.0 1.5 1.5 1.5 1.5 Q 1.5 6.1 3.5 4.9 Q 6.7 6.7 6.7 9.6 9.6 Q 6.7 11.5 11.4 11.1 Q 14.7 14.2 18.2 18.2 V 40.4 Q 21.4 42.1 19.3 45.1 Q 20.0 45.2 18.2 48.1 Q 17.0 46.7 14.1 47.2 Q 11.1 47.6 9.3 47.7 Q 7.9 47.7 6.1 45.1 Q 6.1 43.4 6.4 47.7 Q 5.8 45.7 5.0 47.2 Q 2.4 45.4 1.4 47.4 Q 2.0 47.4 2.0 45.4 Q 1.7 44.5 5.2 43.6 Q 5.2 46.2 8.8 46.2 Q 9.5 49.8" fill="#000"/>
</svg>