<?xml version="1.0" encoding="UTF-8"?>
<svg viewBox="0 0 128 128" xmlns="http://www.w3.org/2000/svg">
  <!-- Generated by FONTe AI -->
  <!-- Style: sans-serif, Character: H -->
  <path d="M 1.3 1.3 Q 1.3 1.3 1.3 1.3 Q 1.2 1.3 1.3 1.3 Q 1.3 1.3 1.3 1.7 Q 1.3 1.3 1.3 0.4 Q 1.0 2.8 1.0 1.0 Q 1.3 3.5 1.3 0.6 4.6 Q 1.3 1.3 1.3 Q 1.3 1.3 1.3 1.2 Q 1.3 1.2 1.3 0.8 Q 1.3 3.2 1.3 2.3 Q 1.3 1.3 1.3 3.8 Q 1.3 1.3 1.3 0.4 Q 0.1 0.1 1.3 0.3 Q 1.3 1.3 1.3 1.3 Q 1.3 1.0 0.8 2.9 Q 1.3 1.3 0.9 0.8 Q 0.8 1.2 0.0 4.2 Q 5.5 2.9 0.4 Q 3.8 3.8 7.6 8.2 Q 8.2 8.1 9.6 10.0 Q 9.7 12.4 14.6 11.3 Q 20.4 11.3 26.9 11.3 Q 27.4 12.7 28.3 13.6 Q 29.2 14.1 25.3 13.3 Q 24.3 14.1 21.6 11.4 Q 18.6 10.9 18.0 10.2 Q 16.6 9.1 16.8 9.1 Q 16.8 9.1 16.8 9.5 Q 16.4 7.7 15.9 6.3 Q 17.4 3.6 18.6 3.6 Q 21.6 2.3 22.4 2.3 Q 23.4 1.5 24.7 1.5 Q 28.8 1.5 31.7 0.1 Q 37.9 1.3 40.3 1.3 Q 40.2 1.3 38.0 1.3 Q 41.7 1.3 44.7 1.3 Q 41.1 1.3 40.1 1.3 Q 40.1 1.3 40.3 1.3" fill="#000"/>
</svg>