<?xml version="1.0" encoding="UTF-8"?>
<svg viewBox="0 0 128 128" xmlns="http://www.w3.org/2000/svg">
  <!-- Generated by FONTe AI -->
  <!-- Style: sans-serif, Character: e -->
  <path d="M 39.7 1.3 Q 26.5 1.3 20.0 1.8 Q 12.2 5.5 6.7 12.9 L 4.5 20.5 L 8.3 25.6 Q 8.3 30.6 12.8 34.3 Q 18.4 38.0 21.6 46.7 Q 22.3 55.7 22.3 59.8 Q 22.9 66.4 23.6 69.1 Q 25.5 69.1 26.1 69.1 Q 27.0 69.1 26.1 69.1 Q 30.3 69.1 32.0 69.1 Q 37.0 69.1 43.6 69.1 Q 47.2 69.1 49.0 69.1 Q 51.2 69.1 52.0 69.1 Q 56.7 69.1 56.7 69.1 Q 56.7 63.5 57.6 62.2 Q 56.4 61.7 58.4 60.0 Q 57.3 60.0 52.1 61.2 Q 52.1 65.0 51.3 65.0 Q 47.4 65.0 44.9 65.0 Q 43.1 65.0 43.8 65.0 Q 43.3 65.0 43.3 65.0 Q 41.9 65.0 41.2 65.0 Q 39.8 65.0 37.0 60.5 Q 35.3 60.5 30.7 57.9 Q 26.2 57.9 26.2 53.6 Q 26.2 49.2 24.4 42.2 Q 24.1 34.6 24.1 30.5 Q 24.1 24.1 21.2 20.7 Q 22.3 16.3 21.6 13.4 Q 26.1 9.5 31.6 7.8 Q 35.3 7.8 38.8 7.8 Q 40.8 7.8 39.8 9.3 Q 43.0 9.0 43.8 10.4 Q 46.2 11.0 46.8 10.6 Q 47.1 10.8 46.5 11.8 Q 48.6 12.2 46.5 10.6 Q 48.1 10.6 45.2 8.1 Q 43.9 8.1 43.0 8.1 Q 43.3 6.5 43.5 6.5 Q 41.7 6.5 43.5 5.1 Q 43.5 5.1 43.5 2.9 Q 40.1 0.9 36.0 0.1 Q 29.7 0.0 19.5 0.3 Q 12.8 0.3 10.0 0.3 Q 6.1 1.3 6.8 1.3 Q 6.3 1.3 6.3 1.3 Q 4.4 1.3 4.4 0.0 Q 7.2 1.3" fill="#000"/>
</svg>