<?xml version="1.0" encoding="UTF-8"?>
<svg viewBox="0 0 128 128" xmlns="http://www.w3.org/2000/svg">
  <!-- Generated by FONTe AI -->
  <!-- Style: sans-serif, Character: P -->
  <path d="M 9.2 0.0 V 85.1 H 20.5 V 0.0 Z M 21.1 0.0 V 93.4 H 31.7 V 0.0 Z M 30.7 0.0 V 75.5 H 38.9 V 0.0 Z M 30.7 0.0 V 75.5 H 41.2 V 0.0 Z M 38.4 0.0 V 75.5 H 53.8 V 0.0 Z M 38.1 0.0 V 75.5 H 42.2 Z M 42.2 0.0 V 75.5 H 38.4 V 0.0 Z M 38.4 0.0 V 75.5 H 26.9 Z M 38.4 0.0 V 0.0 Z M 0.0 64.6 H 38.4 V 75.5 H 38.4 V 0.0 Z M 38.4 0.0 V 75.5 H 0.0 Z M 0.0 64.6 H 26.9 V 75.5 H 0.0 Z M 20.5 0.0 V 75.5 H 38.4 V 75.5 H 38.4 V 75.5 H 38.4 V 0.0 Z" fill="#000"/>
</svg>