<?xml version="1.0" encoding="UTF-8"?>
<svg viewBox="0 0 128 128" xmlns="http://www.w3.org/2000/svg">
  <!-- Generated by FONTe AI -->
  <!-- Style: sans-serif, Character: y -->
  <path d="M 3.1 3.1 Q 3.1 3.1 1.4 Q 3.1 3.1 0.9 1.9 1.9 Q 2.4 7.6 1.0 Q 4.5 2.9 0.6 1.5 Q 1.5 1.5 1.5 0.8 Q 1.7 2.4 0.6 Q 2.2 2.2 2.7 1.4 Q 4.0 2.8 2.6 2.9 Q 2.8 2.9 0.6 1.3 Q 2.4 2.9 1.4 0.5 Q 2.6 2.6 2.6 2.6 Q 2.6 2.6 0.8 Q 2.6 0.8 1.3 1.3 1.3 Q 2.8 4.0 4.0 Q 1.0 1.8 0.8 Q 2.8 4.4 0.1 Q 2.2 0.3 4.0 Q 2.9 3.7 0.3 Q 2.0 4.6 5.6 Q 7.3 5.6 7.3 Q 7.4 7.4 7.4 7.4 Q 8.1 5.8 3.1 Q 4.5 7.9 4.0 Q 5.8 6.4 5.2 Q 6.3 6.3 6.3 Q 8.6 6.3 6.3 6.8 Q 5.9 5.2 6.0 4.6 Q 5.8 2.2 2.2 Q 2.2 2.2 2.2 Q 2.2 1.7 0.4 0.3 Q 1.3 3.1 0.5 Q 0.5" fill="#000"/>
</svg>