<?xml version="1.0" encoding="UTF-8"?>
<svg viewBox="0 0 128 128" xmlns="http://www.w3.org/2000/svg">
  <!-- Generated by FONTe AI -->
  <!-- Style: sans-serif, Character: 6 -->
  <path d="M 33.0 1.3 Q 22.9 1.3 17.8 3.8 Q 7.7 10.8 5.1 17.7 Q 5.1 25.2 5.1 36.1 Q 5.1 45.2 10.5 51.1 Q 13.7 55.7 16.3 57.7 Q 22.4 59.8 27.0 60.2 Q 32.5 60.2 38.4 60.2 Q 40.7 60.2 45.4 60.2 Q 44.4 60.2 45.6 60.2 Q 51.6 60.2 51.6 60.2 Q 51.6 60.2 51.8 Q 50.3 50.3 50.3 50.3 Q 50.3 50.3 50.3 50.3 Q 50.6 50.4 50.6 50.6 Q 50.3 52.0 48.9 48.9 Q 48.9 48.9 46.0 48.9 Q 48.9 48.9 50.6 52.0 Q 52.0 52.0 52.9 52.9 Q 52.9 54.7 52.7 54.7 Q 52.9 52.9 52.9 52.9 Q 52.9 52.9 52.9 52.9 Q 52.9 52.9 52.9 52.9 Q 54.7 52.9 52.9 52.9 Q 52.1 52.1 52.0 52.1 Q 52.1 52.1 52.1 52.9 Q 52.1 52.1 52.1 52.1 Q 52.1 52.1 52.1 52.1 52.1 Q 52.1 52.1 52.6 49.7 Q 52.1 52.1 52.1 52.1 52.1 Q 52.1 52.1 52.1 52.1 Q 52.1 52.1 52.1 53.2 Q 52.1 52.1 54.0 52.1 Q 52.1 52.1 52.1 52.1 Q 52.1 52.1 52.1 52.1 52.1 Q 52.1 52.1 48.6 52.1 Q 52.1 52.1 52.1 53.2 49.3 Q 52.1 47.5 47.5 51.7 Q 47.5 47.5 49.4 44.2 Q 47.5 46.3 44.4 46.3 Q 41.0 46.3 41.0 52.9 Q 41.6 54.8 39.3 54.8 Q 35.8 54.8 29.1 53.6 Q 24.6 53.9 24.6 53.9 Q 21.6 49.9 21.6 47.7 Q 21.0 41.0 23.7 47.7 Q 23.8 48.3 25.9 48.3 Q 29.6 48.3 34.6 48.3 Q 36.6 48.3 37.2 48.3 Q 39.6 48.3 37.1 48.3" fill="#000"/>
</svg>