<?xml version="1.0" encoding="UTF-8"?>
<svg viewBox="0 0 128 128" xmlns="http://www.w3.org/2000/svg">
  <!-- Generated by FONTe AI -->
  <!-- Style: sans-serif, Character: B -->
  <path d="M 9.0 0.0 V 89.6 H 30.7 Q 36.4 88.3 42.5 84.9 Q 47.0 76.8 48.6 67.2 Q 53.0 53.8 50.9 46.1 Q 53.5 44.7 52.9 43.3 Q 51.7 45.1 50.4 41.9 Q 49.4 40.3 43.1 43.8 Q 39.8 41.3 43.5 38.9 Q 44.2 38.5 46.2 38.3 Q 42.6 33.0 39.4 29.8 Q 33.7 28.9 33.8 25.1 Q 35.1 23.7 33.5 21.0 Q 35.3 16.5 39.7 13.8 Q 39.9 8.6 42.1 6.7 Q 45.4 4.1 46.0 1.4 Q 46.7 0.0 45.7 0.3 Q 47.2 0.8 49.4 2.3 Q 49.2 3.2 47.9 5.1 Q 49.8 9.1 55.0 10.2 Q 56.1 14.5 58.9 18.8 Q 58.8 21.9 58.5 23.8 Q 54.0 24.3 52.1 25.5 Q 50.3 23.4 46.5 17.5 Q 44.3 12.9 36.9 8.3 Q 29.7 3.8 27.6 1.9 Q 23.2 0.0 22.9 -0.1 Q 18.7 -0.3 15.9 -0.5 Q 11.3 -0.4 5.8 -0.9 Z M 10.2 39.3 H 11.5 Q 10.5 45.7 14.0 50.4 Q 13.1 53.0 16.4 55.8 Q 21.4 60.7 23.0 65.3 Q 28.0 65.8 31.4 67.1 Q 35.7 67.6 38.4 66.0 Q 41.6 66.4 42.2 62.8 Q 43.8 62.3 46.0 62.7 Q 44.8 61.6 48.9 61.2 Q 48.4 61.1 52.2 60.9 Q 50.8 65.3 54.0 64.5 Q 55.4 64.1 55.8 66.4 Q 54.9 73.7 53.0 78.2 Q 48.3 78.7 47.4 80.8 Q 45.4 82.2 40.1 82.0 Q 38.4 84.1 33.3 85.4 Q 30.7 82.4 28.7 82.3 Q 24.1 76.9 23.9 77.3 Q 22.4 76.5 23.0 75.5 Q 18.8 68.5 18.0 64.6 Z" fill="#000"/>
</svg>