<?xml version="1.0" encoding="UTF-8"?>
<svg viewBox="0 0 128 128" xmlns="http://www.w3.org/2000/svg">
  <!-- Generated by FONTe AI -->
  <!-- Style: sans-serif, Character: I -->
  <path d="M 1.3 1.3 Q 1.3 1.3 1.3 Q 1.3 1.3 1.3 1.3 1.3 Q 1.3 1.3 1.3 Q 1.3 1.3 0.8 1.3 2.7 Q 1.3 0.1 0.6 2.0 Q 2.0 2.0 2.0 2.0 Q 2.0 2.0 2.0 2.2 Q 1.3 1.3 1.3 1.3 1.3 Q 0.1 2.2 2.2 2.2 Q 2.2 2.2 2.2 Q 2.2 3.1 2.2 Q 2.2 2.2 0.4 Q 0.6 0.6 0.1 Q 1.3 1.3 1.3 1.3 Q 1.3 1.3 1.3 Q 1.3 1.3 0.3 Q 0.8 1.3 2.4 Q 0.8 2.3 0.3 2.8 Q 0.3 1.3 0.8 0.3 Q 0.4 0.8 0.3 Q 1.3 1.3 0.6 1.3 Q 1.4 1.3 1.3 3.7 Q 4.0 4.0 4.5 4.0 Q 4.0 4.0 4.0 4.0 Q 1.5 4.0 4.0 3.1 Q 7.6 6.7 9.5 10.8 Q 9.1 12.7 8.6 13.8 Q 14.3 14.6 14.6 Q 14.6 14.6 14.6 14.6 Q 14.6 14.3 17.2 14.6 Q 16.5 16.5 16.5 16.5 Q 16.5 16.5 16.5 16.5 Q 16.5 16.5 16.3 16.3 Q 16.3 16.3 16.3 16.3 Q 16.3 16.3 16.3 16.3 Q 16.3 16.3 16.4 19.3 Q 15.6 15.6 15.6 Q 17.9 15.2 15.1 19.3 Q 15.2 19.3 12.8 Q 12.4" fill="#000"/>
</svg>