<?xml version="1.0" encoding="UTF-8"?>
<svg viewBox="0 0 128 128" xmlns="http://www.w3.org/2000/svg">
  <!-- Generated by FONTe AI -->
  <!-- Style: sans-serif, Character: E -->
  <path d="M -0.3 Q -1.0 Q 12.8 Q -2.3 Q 8.6 Q Q 25.9 L Q 44.5 Q -0.1 Q 10.1 Q Q 30.6 Q 33.7 Q 20.9 Q 18.8 Q 66.2 37.6 37.6 Q 11.0 Q 7.9 Q 18.6 Q 26.9 Q -1.5 Q -1.2 Q Q 28.8 Q Q 23.9 Q 53.0 Q 44.7 Q Q 19.1 Q 18.8 Q 20.9 Q 52.4 Q 17.7 9.6 Q 21.8 Q 6.4 Q 43.5 Q Q 37.0 30.8 Q 25.0 Q 48.0 Q Q 49.4 Q 30.6 Q 34.4 Q Q 32.4 32.4 Q 52.1 Q 57.6 53.8 Q 53.1 Q Q 22.0 2.0 -1.5 Q 53.4 Q 29.7 Q 17.3 Q Q 32.1 Q 17.5 Q 27.3 Q 16.6 Q Q 20.9 Q 17.8 52.9 Q 21.8 Q 18.0 Q Q Q 26.9 Q 37.6 21.0 Q 50.4 16.8 Q Q 40.3 Q 54.4 Q 14.6 Q 127.9 Q 51.2 Q 55.3 Q 53.1 Q 127.9 Q 11.8 Q 127.9 Q 127.9 Q 127.9 Q 127.9 Q 127.9 Z" fill="#000"/>
</svg>