<?xml version="1.0" encoding="UTF-8"?>
<svg viewBox="0 0 128 128" xmlns="http://www.w3.org/2000/svg">
  <!-- Generated by FONTe AI -->
  <!-- Style: sans-serif, Character: C -->
  <path d="M 47.9 2.4 Q 25.5 2.4 19.7 1.9 Q 21.1 1.9 1.9 Q 12.8 1.9 12.4 6.8 Q 7.7 10.5 12.4 11.5 Q 7.4 15.7 13.1 13.1 Q 6.1 13.1 5.0 14.0 Q 7.9 14.0 14.0 Q 15.7 12.4 12.4 15.7 Q 15.0 15.7 11.8 17.4 Q 11.9 11.8 11.6 14.0 Q 15.7 11.9 22.5 17.7 Q 12.5 14.7 10.0 12.2 Q 6.7 7.8 9.5 5.0 Q 7.6 8.3 10.0 10.0 Q 9.1 9.1 7.0 11.5 Q 11.6 7.7 8.3 11.1 Z" fill="#000"/>
</svg>