<?xml version="1.0" encoding="UTF-8"?>
<svg viewBox="0 0 128 128" xmlns="http://www.w3.org/2000/svg">
  <!-- Generated by FONTe AI -->
  <!-- Style: sans-serif, Character: o -->
  <path d="M 6.4 16.9 Q 6.4 21.9 6.4 29.1 Q 6.4 36.1 16.1 42.6 Q 19.3 49.8 20.0 56.2 Q 21.2 61.7 26.1 66.6 Q 32.8 66.6 40.8 66.6 Q 45.7 66.6 52.0 66.6 Q 57.0 66.6 57.3 64.8 Q 61.7 64.4 59.8 56.6 Q 64.4 52.0 64.4 45.8 Q 64.4 39.7 64.4 33.7 Q 64.4 27.9 64.4 23.4 Q 63.7 19.3 60.3 16.5 Q 53.2 10.8 45.1 6.5 Q 40.8 1.4 36.0 1.4 Q 27.9 1.4 21.8 1.4 Q 16.6 3.5 8.6 9.3 Q 6.0 9.3 6.0 14.1 Z M 39.3 11.5 Q 45.3 11.5 48.0 14.1 Q 51.2 15.7 51.2 21.0 Q 51.2 24.1 51.2 32.6 Q 50.3 40.3 49.8 43.5 Q 48.3 41.7 46.6 40.1 Q 41.5 43.8 38.9 43.8 Q 31.5 44.3 26.4 41.1 Q 21.4 41.1 21.4 41.1 Q 17.3 38.8 17.3 33.8 Q 17.3 28.7 17.3 27.4 Q 17.3 21.4 13.7 17.3 Q 17.3 16.9 14.5 16.0 Q 13.2 14.7 11.0 13.2 Q 11.3 10.5 10.6 10.6 Q 10.6 10.6 10.6 10.6 Q 10.6 10.6 10.6 8.6 Q 10.6 5.0 10.6 5.0 Q 10.6 5.0 10.6 5.0 Q 15.5 5.0 20.4 5.0 Q 23.4 5.0 27.9 5.0 Q 31.9 5.0 36.0 5.0 Z" fill="#000"/>
</svg>