<?xml version="1.0" encoding="UTF-8"?>
<svg viewBox="0 0 128 128" xmlns="http://www.w3.org/2000/svg">
  <!-- Generated by FONTe AI -->
  <!-- Style: sans-serif, Character: z -->
  <path d="M 3.8 0.0 V 4.1 H 7.8 Q 12.9 4.1 12.9 4.1 Q 12.9 4.1 12.9 5.5 Q 12.9 5.5 12.9 6.0 V 73.0 Q 12.9 73.0 11.9 81.9 Q 11.9 81.9 9.9 81.9 H 9.0 Q 9.0 92.2 9.0 92.2 H 16.5 V 89.6 H 61.1 Q 64.8 89.6 66.2 89.6 Q 68.4 89.6 69.2 89.6 Q 69.2 89.6 69.2 89.6 H 60.5 Q 60.7 89.6 60.7 89.6 H 60.7 Q 60.3 89.6 62.8 89.6 H 89.6 Q 89.6 89.6 89.6 Q 89.6 89.6 89.6 89.6 89.6 Q 89.6 89.6 89.6 89.6 Q 89.6 89.6 89.6 89.6 Q 89.6 89.6 89.6 89.6 Q 89.6 89.6 89.6 89.6 Q 89.6 89.6 89.6 89.6 Q 89.6 89.6 89.6 89.6 Q 89.6 89.6 89.6 89.6 Q 89.6 89.6 89.6 89.6 89.6 Q 89.6 89.6 89.6 89.6 Q 89.6 89.6 89.6 89.6 Q 89.6 89.6 89.6 89.6 Q 89.6 89.6 89.6 89.6 Q 89.6 89.6 89.6 89.6 Q 89.6 89.6 89.6 89.6 Q 89.6 89.6 89.6 89.6 Q 89.6 89.6 89.6 89.6 Q 89.6 89.6 89.6 89.6 Q 89.6 89.6 89.6 89.6 Q 89.6 89.6 89.6 89.6 Q 89.6 89.6 89.6 89.6 Q 89.6 89.6 89.6 89.6 Q 89.6 89.6 89.6 89.6 Q 89.6 89.6 89.6 89.6 89.6 Q 89.6 89.6 89.6 89.6 Q 89.6 89.6 89.6 89.6 Q 89.6 89.6 89.6 89.6 Q 89.6 89.6 89.6 89.6 Q 89.6 89.6 89.6 89.6 89.6 Q 89.6 89.6 89.6 89.6 Q 89.6 89.6 89.6 89.6 Q 89.6 89.6 89.6 89.6 89.6 H 89.6 Q 89.6 89.6 89.6" fill="#000"/>
</svg>