<?xml version="1.0" encoding="UTF-8"?>
<svg viewBox="0 0 128 128" xmlns="http://www.w3.org/2000/svg">
  <!-- Generated by FONTe AI -->
  <!-- Style: sans-serif, Character: M -->
  <path d="M 6.1 0.0 V 127.9 H 34.6 Q 41.5 127.9 43.5 127.9 Q 49.5 127.9 54.0 127.9 Q 58.9 127.9 62.0 127.9 Q 65.4 127.9 70.9 127.9 Q 83.3 127.9 82.6 127.9 Q 94.1 127.9 100.4 127.9 Q 98.3 127.9 98.3 127.9 Q 109.6 127.9 119.6 127.9 Q 125.3 127.9 126.5 127.9 Q 127.9 127.9 127.9 127.9 Q 127.9 127.9 127.9 127.9 Q 127.9 127.9 127.9 127.9 Q 127.9 127.9 127.9 127.9 Q 127.9 127.9 127.9 127.9 Q 127.9 127.9 127.9 127.9 Q 127.9 127.9 127.9 127.9 L 127.9 127.9 L 127.9 0.0 H 127.9 L 127.9 127.9 Q 127.9 127.9 127.9 127.9 Q 127.9 127.9 127.9 127.9 Q 127.9 127.9 127.9 127.9 Q 127.9 127.9 127.9 127.9 Q 127.9 127.9 127.9 127.9 Q 127.9 127.9 127.9 127.9 Q 127.9 127.9 127.9 127.9 Q 127.9 127.9 127.9 127.9 Q 127.9 127.9 127.9 127.9 V 0.0 Z" fill="#000"/>
</svg>