<?xml version="1.0" encoding="UTF-8"?>
<svg viewBox="0 0 128 128" xmlns="http://www.w3.org/2000/svg">
  <!-- Generated by FONTe AI -->
  <!-- Style: sans-serif, Character: U -->
  <path d="M 127.9 2.6 H 127.9 V 2.6 Q 127.9 2.6 127.9 2.6 Q 127.9 2.6 127.9 4.7 Q 127.9 10.0 127.9 10.0 Q 127.9 12.2 127.9 13.4 Q 127.9 14.3 127.9 13.6 Q 127.9 15.9 127.9 19.7 Q 127.9 21.8 127.9 21.8 Q 127.9 20.2 127.9 20.2 Q 127.9 18.8 127.9 17.0 Q 127.9 12.5 127.9 9.2 Q 127.9 6.5 127.9 6.5 Q 127.9 6.5 127.9 7.6 Q 127.9 7.6 127.9 7.8 Q 127.9 7.8 127.9 7.8 Q 127.9 7.8 127.9 10.8 Q 127.9 8.1 127.9 8.1 Q 127.9 8.1 127.9 8.1 Q 127.9 8.1 127.9 8.1 Q 127.9 7.0 127.9 7.0 Q 127.9 7.0 127.9 7.0 Q 127.9 4.2 127.9 4.2 Q 127.9 2.6 127.9 2.6 Z" fill="#000"/>
</svg>