<?xml version="1.0" encoding="UTF-8"?>
<svg viewBox="0 0 128 128" xmlns="http://www.w3.org/2000/svg">
  <!-- Generated by FONTe AI -->
  <!-- Style: sans-serif, Character: a -->
  <path d="M 127.9 -0.5 Q 121.3 -3.2 104.4 -0.3 Q 107.3 2.0 102.3 5.4 Q 97.8 10.0 105.6 14.0 Q 99.6 22.0 101.8 32.1 Q 101.5 35.6 104.7 39.0 Q 107.8 40.1 102.5 40.8 Q 98.2 42.5 101.1 47.4 Q 98.7 49.7 96.5 57.0 Q 91.9 58.1 91.8 61.4 Q 90.1 64.4 88.3 65.2 Q 86.4 65.5 86.0 65.7 L 127.9 58.8 L 119.3 -1.3 Q 100.6 -1.2 97.0 -0.4 Q 95.1 -1.7 97.2 -0.9 Q 93.3 -0.5 91.1 -0.0 Q 94.0 -0.3 90.4 2.3 Q 82.8 3.8 77.1 4.2 Q 73.5 4.7 65.7 5.8 Q 56.6 -3.3 47.1 -0.5 Q 40.8 -1.2 39.2 -0.8 Q 34.0 -1.3 28.5 -0.0 Q 25.2 3.7 22.5 8.3 Q 17.5 9.5 16.0 8.4 Q 11.5 8.6 12.3 12.2 Q 14.1 14.0 12.9 16.5 Q 13.1 17.9 15.7 18.9 Q 16.4 17.2 20.2 21.4 Q 24.2 22.9 26.8 26.6 Q 30.1 29.4 33.5 32.1 Q 37.0 34.4 38.7 36.0 37.4 Q 37.1 39.3 35.8 36.1 Q 38.1 38.3 34.9 37.8 Q 35.7 34.8 35.1 32.4 Q 31.9 29.8 30.2 28.0 Q 24.6 24.1 19.5 Q 19.7 18.8 12.7 19.1 Q 9.9 16.9 10.1 15.1 Q 10.5 12.0 12.4 10.0 Q 13.2 9.5 14.5 8.7 Q 16.5 7.9 19.2 5.1 Q 22.9 3.8 30.1 5.0 Q 34.9 4.4 39.8 5.4 Q 41.9 7.8 46.3 9.9 Q 52.1 12.4 54.7 17.9 L 56.1 19.7 L 58.2 21.2 L 54.9 21.0 Q 55.9 20.4 55.8 20.2 Q 55.6 18.3 56.2 17.7 Q 59.5 15.9 60.2 13.1 Q 60.3 11.8 61.1 11.6 Q 63.2 12.3 67.3 11.5 Q 68.4 10.9 71.8 10.6 Q 72.2 7.7 76.0 7.8 Q 77.3 5.4 79.7 2.6 Q 80.1 -1.0 81.5 -0.4 Q 82.6 -0.5 88.6 -1.2 Q 85.6 -2.0 94.5 -1.4 Q 96.5 -1.8 105.1 -2.2 Z M 0.0 -62.7 H 102.9 V -48.0 H 0.0 Z M 0.0 2.6 H 113.7 V -64.0 H 0.0 Z M 0.0 64.6 H 118.4 V 126.1 H 114.2 V 121.1 H 112.0 V 112.5 H 123.6 V 120.1 H 116.5 V 117.8 H 0.0 Z" fill="#000"/>
</svg>