<?xml version="1.0" encoding="UTF-8"?>
<svg viewBox="0 0 128 128" xmlns="http://www.w3.org/2000/svg">
  <!-- Generated by FONTe AI -->
  <!-- Style: sans-serif, Character: T -->
  <path d="M 127.9 88.6 Q 127.9 84.5 127.9 80.3 Q 127.9 76.4 127.9 73.9 Q 127.9 73.5 127.9 71.2 Q 127.9 65.4 127.9 60.3 Q 127.9 54.7 127.9 53.0 Q 127.9 49.7 127.9 44.8 Q 127.9 43.3 127.9 40.6 Q 127.9 41.6 127.9 38.4 Q 127.9 35.8 127.9 36.5 Q 127.9 31.9 127.9 31.5 Q 127.9 28.8 127.9 28.9 Q 127.9 29.1 127.9 27.3 Q 127.9 23.4 127.9 18.4 Q 127.9 10.6 127.9 8.2 Q 127.9 0.0 127.9 0.0 H 127.9 Q 127.9 0.0 127.9 0.0 H 127.9 Q 127.9 0.0 127.9 6.5 Q 127.9 11.5 127.9 21.9 Q 127.9 31.0 127.9 38.3 Q 127.9 41.6 127.9 41.6 Q 127.9 43.3 127.9 42.9 Q 127.9 42.9 127.9 42.6 Q 127.9 36.5 127.9 31.4 Q 127.9 26.0 127.9 21.8 Q 127.9 14.3 127.9 11.0 Q 127.9 5.5 127.9 2.6 Q 127.9 2.6 127.9 2.6 Q 127.9 3.2 127.9 3.2 Q 127.9 3.2 127.9 3.2 Q 127.9 3.2 127.9 3.2 Q 127.9 3.2 127.9 3.2 Q 127.9 3.2 127.9 3.2 Q 127.9 5.8 127.9 5.8 Q 127.9 5.8 127.9 5.8 Q 127.9 5.8 127.9 5.8 Q 127.9 5.8 127.9 5.8 Q 127.9 3.5 127.9 5.6 Q 127.9 6.5 127.9 6.5 Q 127.9 6.5 127.9 6.5 Q 127.9 6.5 127.9 6.5 Q 127.9 6.5 127.9 6.5 Q 127.9 7.2 127.9 7.2 Q 127.9 8.8 127.9" fill="#000"/>
</svg>