<?xml version="1.0" encoding="UTF-8"?>
<svg viewBox="0 0 128 128" xmlns="http://www.w3.org/2000/svg">
  <!-- Generated by FONTe AI -->
  <!-- Style: sans-serif, Character: d -->
  <path d="M 127.9 2.4 Q 127.9 2.4 127.9 2.4 Q 127.9 3.2 127.9 3.2 Q 127.9 3.2 127.9 3.2 Q 127.9 3.2 127.9 3.2 Q 127.9 3.2 127.9 7.6 Q 127.9 7.6 127.9 10.0 Q 127.9 10.9 127.9 10.0 Q 127.9 10.0 127.9 10.8 Q 127.9 9.6 127.9 11.9 Q 127.9 11.6 127.9 11.6 Q 127.9 11.9 127.9 13.6 Q 127.9 11.8 127.9 11.8 Q 127.9 8.2 127.9 8.2 Q 127.9 8.1 127.9 5.2 Q 127.9 2.4 127.9 1.0 Q 127.9 1.9 127.9 1.9 Q 127.9 2.4 127.9 2.4 Q 127.9 2.4 127.9 2.4 Q 127.9 2.4 127.9 2.4 Q 127.9 6.4 127.9 11.4 Q 127.9 16.6 127.9 24.2 Q 127.9 30.0 127.9 33.3 Q 127.9 36.6 127.9 41.5 Q 127.9 41.5 127.9 41.3 Q 127.9 41.0 127.9 42.8 Q 127.9 38.7 127.9 34.2 Q 127.9 26.6 127.9 16.5 Q 127.9 11.3 127.9 9.2 Q 127.9 10.0 127.9 7.9 Q 127.9 2.4 127.9 2.4 Z M 127.9 2.4 Q 127.9 2.4 127.9 2.4 Q 127.9 2.4 127.9 2.4 Q 127.9 2.4 127.9 2.4 Z" fill="#000"/>
</svg>