<?xml version="1.0" encoding="UTF-8"?>
<svg viewBox="0 0 128 128" xmlns="http://www.w3.org/2000/svg">
  <!-- Generated by FONTe AI -->
  <!-- Style: sans-serif, Character: p -->
  <path d="M 1.3 1.3 Q 1.3 2.2 1.3 1.3 Q 1.3 1.3 1.3 1.3 Q 1.3 1.3 1.3 Q 1.3 0.1 0.1 0.1 Q 4.4 1.3 6.3 1.0 Q 1.0 1.0 0.4 1.0 Q 2.6 0.1 3.7 1.3 Q 5.5 1.3 8.7 1.3 Q 10.5 1.3 14.1 0.5 Q 15.2 1.7 21.2 4.4 Q 27.3 4.1 32.1 9.2 Q 35.8 9.2 37.1 9.1 Q 38.9 10.0 36.9 11.6 Q 37.8 11.9 37.8 11.5 Q 35.1 12.2 31.0 12.3 Q 32.6 12.0 29.6 16.4 Q 29.4 15.7 22.5 15.1 Q 19.5 12.0 19.6 10.2 Q 18.0 5.8 18.0 0.9 Q 13.7 1.3 6.5 1.3 Z M 1.9 42.0 Q 1.9 39.2 1.9 42.5 Q 1.9 43.0 0.3 38.3 Q 0.3 37.2 0.6 36.2 Q 35.1 1.3 36.5 Q 36.5 0.3 33.4 Q 0.3 37.5 2.7 37.5 Q 0.5 33.7 1.5 33.5 Q 0.9 30.1 29.1 Q 3.3 26.5 0.3 23.9 Q 24.3 1.5 29.4 Q 3.1 28.4 24.3 Q 26.2 28.7 24.1 26.0 Q 26.6 27.9 27.1 Q 29.3 29.2 26.9 Q 26.5" fill="#000"/>
</svg>