<?xml version="1.0" encoding="UTF-8"?>
<svg viewBox="0 0 128 128" xmlns="http://www.w3.org/2000/svg">
  <!-- Generated by FONTe AI -->
  <!-- Style: sans-serif, Character: j -->
  <path d="M 0.3 23.3 Q 0.6 26.9 1.9 24.8 Q 1.9 24.4 23.9 24.4 Q 18.9 25.7 24.1 Q 22.1 24.1 21.2 21.5 Q 21.9 21.2 21.2 20.7 Q 20.7 20.7 20.7 20.7 Q 20.7 20.7 17.2 12.9 Q 13.8 10.5 9.6 9.6 Q 9.6 9.6 4.9 9.6 Q 8.3 6.8 8.4 10.8 Q 6.5 6.5 6.5 5.1 Q 5.1 5.1 8.8 7.8 Q 7.2 8.7 6.1 11.4 Q 5.4 6.7 5.9 Q 5.5 6.4 9.0 Q 5.9 4.5 2.9 4.7 Q 4.9 6.3 6.5 9.3 Q 2.9 6.3 4.1 4.5 Q 5.2 5.2 4.1 Q 6.0 5.4 5.0 6.4 L 6.4 11.0 Q 9.0 10.2 11.0 Q 10.1 10.1 10.2 Q 11.9 11.9 12.9 13.7 Q 11.3 10.5 13.8 8.6 9.0 Q 11.5 10.5 10.2 Q 10.2 10.2 10.2 13.4 12.0 Q 13.4 12.7 13.6 Q 8.1 10.8 12.4 9.7 9.6 Q" fill="#000"/>
</svg>