<?xml version="1.0" encoding="UTF-8"?>
<svg viewBox="0 0 128 128" xmlns="http://www.w3.org/2000/svg">
  <!-- Generated by FONTe AI -->
  <!-- Style: sans-serif, Character: q -->
  <path d="M 65.3 25.6 Q 60.7 25.6 52.2 19.8 Q 46.1 21.0 37.5 15.5 Q 33.3 10.6 26.0 4.6 Q 19.6 4.6 13.6 1.7 Q 6.4 1.7 8.1 2.0 Q 9.2 3.1 12.4 6.9 Q 11.8 9.7 12.8 9.7 Q 12.8 11.5 16.1 14.2 Q 18.7 13.2 20.7 15.1 Q 25.2 13.2 28.7 11.8 Q 31.7 11.8 36.6 13.1 Q 41.6 15.4 43.1 18.4 Q 47.4 20.7 47.4 25.5 Q 46.7 29.4 47.1 33.5 Q 47.1 41.7 38.5 46.6 Q 34.9 46.6 34.6 46.6 Q 31.0 46.6 29.3 48.1 Q 25.5 49.5 24.4 49.2 Q 21.5 49.2 21.5 49.2 Q 21.5 47.5 22.5 49.2 Q 22.7 47.5 25.1 44.3 Q 27.8 46.0 31.0 46.6 Q 36.4 46.6 40.3 48.5 Q 42.6 49.3 45.2 45.3 Q 50.2 48.8 52.2 52.1 Q 54.9 51.6 53.6 51.6 Q 53.9 53.4 52.4 51.6 Q 54.4 52.0 53.1 48.1 Q 53.6 46.3 53.5 47.4 Q 50.3 46.8 49.9 44.9 Q 50.7 40.6 53.4 32.9 Q 53.4 26.9 53.4 20.2 Q 52.5 12.7 52.4 6.1 Q 52.4 4.4 47.6 4.4 Q 42.9 7.4 40.8 8.2 Q 36.1 7.3 32.0 7.3 Q 26.4 7.3 24.6 9.6 Q 15.9 11.4 13.2 11.4 Q 10.8 13.2 7.3 13.2 Q 5.5 10.6 8.7 10.4 Q 6.4 10.4 9.6 Q 9.0 9.6 11.6 9.7 Q 12.7 11.8 14.6 Z M 39.3 9.1 Q 42.5" fill="#000"/>
</svg>