<?xml version="1.0" encoding="UTF-8"?>
<svg viewBox="0 0 128 128" xmlns="http://www.w3.org/2000/svg">
  <!-- Generated by FONTe AI -->
  <!-- Style: sans-serif, Character: 0 -->
  <path d="M 127.9 1.5 Q 127.9 1.5 127.9 1.5 Q 127.9 1.5 127.9 3.1 Q 127.9 7.7 127.9 17.5 Q 127.9 28.2 127.9 41.7 Q 127.9 53.9 127.9 68.1 Q 127.9 79.1 127.9 80.1 Q 127.9 98.3 127.9 127.9 Q 127.9 127.9 127.9 127.9 Q 127.9 127.9 127.9 127.9 Q 127.9 127.9 127.9 127.9 Q 127.9 127.9 127.9 127.9 Q 127.9 127.9 127.9 127.9 Q 127.9 127.9 127.9 127.9 Q 127.9 127.9 127.9 127.9 Q 127.9 127.9 127.9 127.9 Q 127.9 127.9 127.9 127.9 Q 127.9 127.9 127.9 127.9 Q 127.9 127.9 127.9 127.9 Q 127.9 127.9 127.9 127.9 Q 127.9 127.9 127.9 127.9 Q 127.9 127.9 127.9 127.9 Q 127.9 127.9 127.9 127.9 Q 127.9 127.9 127.9 127.9 Q 127.9 127.9 127.9 127.9 Q 127.9 127.9 127.9 127.9 Q 127.9 127.9 127.9 127.9 Q 127.9 127.9 127.9 127.9 Q 127.9 127.9 127.9 127.9 Q 127.9 127.9 127.9 127.9 Q 127.9 127.9 127.9 127.9 Q 127.9 127.9 127.9 127.9 Q 127.9 127.9 127.9 127.9 Q 127.9 127.9 127.9 127.9 Q 127.9 127.9 127.9 127.9 Q 127.9 127.9 127.9 127.9 Q 127.9 127.9 127.9 127.9 Q 127.9 127.9 127.9 127.9 Q 127.9 127.9 127.9 127.9 Q 127.9 127.9 127.9 127.9 Q 127.9 127.9 127.9 127.9 Q 127.9 127.9 127.9 127.9 Q 127.9 127.9 127.9 127.9 Q 127.9 127.9 127.9 127.9 Q 127.9 127.9 127.9 127.9 Q 127.9 127.9 127.9 127.9 Q 127.9 127.9 127.9 127.9 Q 127.9 127.9 127.9 127.9 Q 127.9 127.9 127.9 127.9 Q 127.9 127.9 127.9 127.9 Q" fill="#000"/>
</svg>