<?xml version="1.0" encoding="UTF-8"?>
<svg viewBox="0 0 128 128" xmlns="http://www.w3.org/2000/svg">
  <!-- Generated by FONTe AI -->
  <!-- Style: sans-serif, Character: 3 -->
  <path d="M 1.9 1.9 Q 1.9 1.9 1.9 Q 1.9 1.0 1.0 Q 5.0 1.0 7.0 1.0 Q 3.3 1.0 3.3 Q 1.0 0.8 0.8 Q 0.8 1.2 1.8 1.4 0.1 Q 0.5 0.1 1.2 Q 1.9 1.9 1.9 Q 1.3 1.9 0.8 0.3 Q 1.9 0.8 0.1 Q 0.3 1.9 1.9 1.9 4.0 Q 1.9 1.9 1.9 1.9 1.9 3.8 Q 1.9 1.9 1.9 4.5 Q 2.3 3.1 0.8 Q 1.5 0.0 0.5 Q 1.9 1.9 1.9 1.3 Q 0.8 2.8 1.9 Q 1.9 1.9 1.9 Q 1.9 1.9 1.9 1.9 2.3 Q 1.9 4.9 0.3 0.4 Q 4.7 1.9 1.9 1.9 1.9 Q 1.9 1.9 1.9 1.9 Q 1.9 1.9 1.9 1.9 Q 1.9 1.9 1.2 Q 4.4 1.9 1.9 L 0.9 0.0 Q 2.8 2.4 2.9 1.2 Q 2.4 1.9 3.8 1.3 Q 4.0 2.0 4.0 2.0 Q 4.0 7.2 2.6 1.4 Q 4.1 3.1 3.8 Q 1.5 0.5 3.7 0.4 Q" fill="#000"/>
</svg>