<?xml version="1.0" encoding="UTF-8"?>
<svg viewBox="0 0 128 128" xmlns="http://www.w3.org/2000/svg">
  <!-- Generated by FONTe AI -->
  <!-- Style: sans-serif, Character: v -->
  <path d="M 0.0 0.0 Q 0.0 0.0 0.8 0.8 Q 0.8 0.8 0.8 0.8 Q 0.8 0.8 0.8 0.8 0.8 Q 0.8 0.8 0.8 0.8 Q 0.8 0.8 0.8 0.8 Q 0.8 0.8 0.8 0.8 0.8 0.8 L 0.8 3.8 Q 3.8 0.8 3.1 0.8 Q 2.8 0.8 1.7 1.7 Q 1.7 1.7 1.7 1.7 Q 1.7 1.7 1.7 1.7 Q 1.7 1.7 1.7 1.7 1.7 Q 1.7 1.7 1.7 1.7 1.7 Q 1.7 1.7 1.7 1.7 Q 1.7 1.7 1.7 1.7 1.7 Q 1.7 1.7 1.7 1.7 1.7 Q 1.7 1.7 1.7 1.7 1.7 1.7 Q 1.7 1.7 1.7 1.7 Q 1.7 1.7 1.7 1.7 1.7 Q 1.7 1.7 1.7 1.7 Q 1.7 1.7 1.7 1.7 1.7 Q 2.2 1.7 1.7 1.7 1.7 Q 1.7 1.7 1.7 1.7 1.7 1.7 Q 1.7 1.7 1.7 1.7 1.7 Q 1.7 1.7 1.7 1.7 1.7 Q 1.7 1.7 1.7 1.7 Q 1.7 1.7 1.7 1.7 1.7 1.7 Q 1.7 3.2 3.1 3.2 Q 3.3 3.3 3.3 3.3 Q 3.8 2.9 3.6 4.2 Q 4.2 4.6 4.2 4.2 Q 4.2 5.0 3.6 6.0 Q 6.0 6.0 7.2 7.6 Q 9.1 9.1 7.2 11.9 Q 8.3 11.5 8.3 14.6 Q 12.5 12.9 17.0 12.9 Z" fill="#000"/>
</svg>