<?xml version="1.0" encoding="UTF-8"?>
<svg viewBox="0 0 128 128" xmlns="http://www.w3.org/2000/svg">
  <!-- Generated by FONTe AI -->
  <!-- Style: sans-serif, Character: A -->
  <path d="M 20.2 127.9 Q 22.1 127.9 19.1 127.9 Q 24.2 127.9 20.0 127.9 Q 20.0 127.9 19.2 127.9 Q 14.3 127.9 12.4 127.9 Q 13.3 127.9 5.0 127.9 Q 11.1 127.9 11.1 127.9 Q 6.1 127.9 4.2 127.9 Q 4.2 127.9 5.5 127.9 L 2.8 127.9 0.4 Q 0.5 127.9 0.5 127.9 3.5 Q 127.9 1.2 127.9 2.6 Q 127.9 2.6 127.9 2.6 Q 127.9 6.0 127.9 1.5 Q 127.9 1.5 127.9 1.5 Q 127.9 1.5 127.9 1.5 Q 127.9 1.5 127.9 1.5 Q 127.9 1.5 127.9 1.9 Q 127.9 1.9 127.9 1.9 Z M 127.9 H 127.9 Q 127.9 127.9 107.6 Q 127.9 127.9 127.9 127.9 Q 127.9 127.9 127.9 127.9 Q 127.9 127.9 127.9 127.9 Q 127.9 127.9 127.9 127.9 Q 127.9 127.9 127.9 127.9 Q 127.9 127.9 127.9 127.9 Q 127.9 127.9 127.9 127.9 Q 127.9 127.9 127.9 127.9 Q 127.9 127.9 127.9 127.9 Q 127.9 127.9 127.9 Q 127.9 127.9 127.9 127.9 Q 127.9 127.9 127.9 127.9 Q 127.9 127.9 127.9 127.9 Q 127.9 127.9 127.9 127.9 Q 127.9 127.9 127.9 127.9 Q 127.9 127.9 127.9 127.9 Q 127.9 127.9 127.9 127.9 127.9 Q 127.9 127.9 127.9 127.9 Q 127.9 127.9 127.9 127.9 Q 127.9 127.9 127.9 127.9 Q 127.9 127.9 127.9 127.9 Q 127.9 127.9 127.9 127.9 Q 127.9 127.9 127.9 127.9 Q 127.9 127.9 127.9 127.9 Q 127.9 127.9 127.9 Q 127.9 127.9 127.9 127.9 Q 127.9 127.9" fill="#000"/>
</svg>