<?xml version="1.0" encoding="UTF-8"?>
<svg viewBox="0 0 128 128" xmlns="http://www.w3.org/2000/svg">
  <!-- Generated by FONTe AI -->
  <!-- Style: sans-serif, Character: C -->
  <path d="M 19.2 0.1 Q 16.0 2.2 11.0 3.6 Q 5.1 7.2 7.3 9.2 Q 7.2 19.1 7.2 29.7 L 7.2 127.9 Q 7.2 127.9 8.6 127.9 Q 8.6 127.9 13.6 127.9 Q 19.8 127.9 20.5 127.9 Q 25.9 127.9 32.0 127.9 Q 32.0 127.9 34.9 127.9 Q 39.6 127.9 42.8 127.9 Q 52.1 127.9 58.2 127.9 Q 63.1 127.9 72.2 127.9 Q 84.9 127.9 86.8 127.9 L 78.1 127.9 Q 83.5 127.9 81.0 127.9 Q 83.5 127.9 80.1 127.9 Q 79.5 127.9 71.3 127.9 Q 68.2 127.9 65.8 127.9 Q 59.0 127.9 54.3 127.9 Q 49.5 127.9 43.4 127.9 Q 38.5 127.9 33.2 127.9 Q 28.4 127.9 29.7 127.9 Q 28.5 127.9 27.8 127.9 Q 25.7 127.9 23.3 127.9 Q 23.6 127.9 22.1 127.9 Q 21.5 127.9 25.3 127.9 Q 25.2 127.9 25.2 127.9 Q 24.4 127.9 24.4 127.9 Q 27.5 127.9 25.2 127.9 Q 25.9 127.9 25.9 127.9 Q 25.9 127.9 25.6 127.9 Z" fill="#000"/>
</svg>