<?xml version="1.0" encoding="UTF-8"?>
<svg viewBox="0 0 128 128" xmlns="http://www.w3.org/2000/svg">
  <!-- Generated by FONTe AI -->
  <!-- Style: sans-serif, Character: r -->
  <path d="M 10.2 0.0 V 65.3 H 11.4 V 68.1 Q 13.4 65.9 16.1 65.9 Q 16.1 65.9 16.1 65.9 Q 16.1 65.9 16.1 65.9 H 22.9 L 25.6 63.2 Q 28.7 63.2 31.2 63.2 Q 33.7 63.2 38.8 63.2 Q 47.1 63.2 53.5 63.2 Q 60.4 63.2 60.4 63.2 Q 63.2 63.2 63.2 63.2 V 68.6 H 66.2 V 63.2 H 63.2 V 61.4 H 64.8 Q 58.9 64.1 54.7 62.8 Q 54.0 60.7 54.0 57.0 Q 49.7 57.0 46.6 57.0 Q 40.8 57.0 36.1 55.8 Q 29.6 54.7 24.1 49.7 Q 24.1 42.5 24.1 35.1 V 0.0 Z" fill="#000"/>
</svg>