<?xml version="1.0" encoding="UTF-8"?>
<svg viewBox="0 0 128 128" xmlns="http://www.w3.org/2000/svg">
  <!-- Generated by FONTe AI -->
  <!-- Style: sans-serif, Character: 4 -->
  <path d="M 33.0 1.3 Q 26.2 1.3 21.5 0.4 Q 17.2 0.4 9.6 0.4 Q 5.4 3.7 3.7 3.7 Q 3.7 3.7 3.7 3.7 Q 3.7 3.7 3.7 3.7 Q 3.7 3.7 3.7 3.7 Q 3.7 3.7 3.7 3.7 Q 3.7 3.7 3.7 3.7 Q 3.7 3.7 5.6 3.7 Q 3.7 5.2 5.2 3.7 Q 5.0 5.2 5.2 5.2 Q 5.2 5.2 5.2 5.2 Q 5.2 5.2 5.2 5.2 Q 5.2 5.2 5.2 5.2 Q 5.2 5.2 5.2 5.2 Q 5.2 5.2 5.2 4.7 Q 5.2 5.2 5.2 5.2 L 5.2 5.2 Q 5.4 6.3 3.6 3.6 Q 6.7 6.7 4.5 9.2 Q 6.7 6.7 11.5 7.8 Q 12.4 7.8 13.4 7.8 Q 16.0 7.8 16.0 7.8 Q 15.9 7.8 16.0 7.8 Q 16.4 7.8 18.0 7.8 Q 19.1 7.8 17.7 8.8 Q 19.2 8.8 19.2 9.9 Q 18.4 11.5 16.8 14.1 Q 16.0 15.6 16.3 14.7 Q 16.1 15.9 15.9 14.8 Q 14.5 15.1 18.2 17.0 Q 18.2 17.0 15.5 17.9 Q 17.0 19.5 16.1 18.2 Q 16.8 18.7 19.7 19.2 Q 19.7 19.7 18.7 20.6 Q 20.6 18.3 19.6 21.5 Q 21.9 21.9 21.9 21.8 Q 23.6 20.5 25.9 18.0 Q 23.0 15.2 25.0 11.9 Q 27.1 14.0 26.9 12.9 Q 28.4 11.1 31.4 8.3 Q 32.8 8.3 31.1 8.3 Q 31.4 8.3 31.2 8.2 Q 28.7 8.2 25.9 6.7 Q 26.9 6.7 22.9 6.7 Q 20.7 8.3 20.7 9.3 Q 20.7 6.9 20.7 6.9 Q 20.7 6.9 20.7 6.9 Q 20.7 6.9 20.7 8.6 Q 20.5 10.2 21.8 10.2" fill="#000"/>
</svg>